<svg width="168" height="40" viewBox="0 0 168 40" fill="none" xmlns="http://www.w3.org/2000/svg">
<path d="M46.0147 20.092H28.6627V10.18H46.0147V20.092ZM41.8147 16.492V13.78H32.8627V16.492H41.8147ZM34.8547 29.404V25.348H27.3667V21.508H47.2147V25.348H39.4867V29.404H34.8547Z" fill="#22252A"/>
<path d="M47.9503 25.54C48.4303 24.964 48.8623 24.396 49.2463 23.836C49.6463 23.276 50.0063 22.732 50.3263 22.204C50.6303 21.708 50.9023 21.188 51.1423 20.644C51.3983 20.1 51.6223 19.54 51.8143 18.964C51.9743 18.42 52.1183 17.836 52.2463 17.212C52.3743 16.588 52.4783 15.932 52.5583 15.244C52.6063 14.572 52.6463 13.844 52.6783 13.06C52.7103 12.26 52.7263 11.404 52.7263 10.492H56.9743C56.9743 11.596 56.9503 12.628 56.9023 13.588C56.8543 14.548 56.7983 15.436 56.7343 16.252C56.6863 16.668 56.6303 17.076 56.5663 17.476C56.5023 17.86 56.4383 18.236 56.3743 18.604C56.9023 19.164 57.4063 19.716 57.8863 20.26C58.3663 20.788 58.8223 21.316 59.2543 21.844C59.6863 22.42 60.0943 23.012 60.4783 23.62C60.8623 24.212 61.2223 24.82 61.5583 25.444L58.5343 28.156C58.3423 27.82 58.1583 27.492 57.9823 27.172C57.8063 26.852 57.6223 26.54 57.4303 26.236C57.2383 25.948 57.0383 25.668 56.8303 25.396C56.6223 25.124 56.4143 24.844 56.2063 24.556C56.0943 24.444 55.9823 24.324 55.8703 24.196C55.7743 24.068 55.6703 23.932 55.5583 23.788C55.4463 23.66 55.3343 23.532 55.2223 23.404C55.1263 23.276 55.0303 23.148 54.9343 23.02C54.7903 23.308 54.6463 23.588 54.5023 23.86C54.3583 24.132 54.2143 24.396 54.0703 24.652C53.6863 25.276 53.2543 25.9 52.7743 26.524C52.3103 27.148 51.7903 27.78 51.2143 28.42L47.9503 25.54ZM69.9823 16.468V20.62C69.8863 20.62 69.7823 20.628 69.6703 20.644C69.5583 20.644 69.4383 20.652 69.3103 20.668C69.1823 20.668 69.0543 20.676 68.9263 20.692C68.7983 20.708 68.6623 20.716 68.5183 20.716C68.2463 20.764 67.9823 20.812 67.7263 20.86C67.4863 20.908 67.2543 20.956 67.0303 21.004V29.38H62.5903V10.06H67.0303V16.9C67.2543 16.836 67.4863 16.78 67.7263 16.732C67.9823 16.668 68.2543 16.612 68.5423 16.564C68.6863 16.564 68.8223 16.556 68.9503 16.54C69.0943 16.524 69.2223 16.516 69.3343 16.516C69.4623 16.5 69.5743 16.492 69.6703 16.492C69.7823 16.476 69.8863 16.468 69.9823 16.468Z" fill="#22252A"/>
<path d="M90.8788 20.956H71.0308V18.556H90.8788V20.956ZM72.0868 12.868H85.5988V12.292H72.2068V10.06H89.6788V15.1H76.1668V15.7H90.0388V17.932H72.0868V12.868ZM72.0148 24.34H85.6708V23.788H72.0148V21.532H89.7508V26.596H76.0948V27.1H90.1828V29.428H72.0148V24.34Z" fill="#22252A"/>
<path d="M112.83 10.18H117.03V20.092H99.6783V10.18H103.878V11.74H112.83V10.18ZM103.878 15.22V16.612H112.83V15.22H103.878ZM105.87 29.404V25.468H98.3823V21.748H118.23V25.468H110.502V29.404H105.87Z" fill="#22252A"/>
<path d="M132.07 13.252H124.486V14.164H131.95V17.236H124.486V18.196H130.294C130.438 18.212 130.574 18.22 130.702 18.22C130.846 18.22 130.99 18.212 131.134 18.196C131.262 18.196 131.39 18.196 131.518 18.196C131.646 18.196 131.774 18.188 131.902 18.172C132.014 18.172 132.126 18.164 132.238 18.148C132.366 18.132 132.494 18.108 132.622 18.076V21.1C132.446 21.164 132.246 21.22 132.022 21.268C131.798 21.3 131.55 21.324 131.278 21.34C130.99 21.372 130.654 21.396 130.27 21.412C129.902 21.412 129.478 21.404 128.998 21.388H120.406V10.06H132.07V13.252ZM141.022 13.372V17.524C140.974 17.524 140.918 17.532 140.854 17.548C140.806 17.548 140.75 17.548 140.686 17.548C140.622 17.548 140.558 17.548 140.494 17.548C140.446 17.548 140.39 17.548 140.326 17.548C140.182 17.564 140.038 17.58 139.894 17.596C139.75 17.612 139.614 17.628 139.486 17.644C139.406 17.66 139.326 17.676 139.246 17.692C139.182 17.692 139.118 17.7 139.054 17.716C138.99 17.732 138.926 17.748 138.862 17.764C138.798 17.764 138.742 17.764 138.694 17.764C138.598 17.796 138.518 17.828 138.454 17.86C138.406 17.876 138.358 17.892 138.31 17.908V21.748H134.134V10.06H138.31V13.924C138.438 13.844 138.582 13.772 138.742 13.708C138.902 13.644 139.086 13.58 139.294 13.516C139.502 13.468 139.75 13.436 140.038 13.42C140.326 13.388 140.654 13.372 141.022 13.372ZM134.11 29.404V26.164H121.15V22.564H138.31V29.404H134.11Z" fill="#22252A"/>
<path d="M152.246 15.916H142.238V12.34H145.382V9.46002H149.102V12.34H152.246V15.916ZM147.278 25.156C147.438 25.156 147.582 25.108 147.71 25.012C147.854 24.916 147.99 24.764 148.118 24.556C148.214 24.364 148.286 24.116 148.334 23.812C148.398 23.492 148.43 23.116 148.43 22.684C148.43 22.284 148.398 21.932 148.334 21.628C148.286 21.308 148.214 21.036 148.118 20.812C147.99 20.62 147.854 20.476 147.71 20.38C147.582 20.268 147.438 20.212 147.278 20.212C147.086 20.212 146.918 20.268 146.774 20.38C146.646 20.476 146.534 20.62 146.438 20.812C146.326 21.036 146.246 21.308 146.198 21.628C146.15 21.932 146.126 22.284 146.126 22.684C146.126 23.116 146.15 23.492 146.198 23.812C146.246 24.116 146.334 24.364 146.462 24.556C146.558 24.764 146.67 24.916 146.798 25.012C146.942 25.108 147.102 25.156 147.278 25.156ZM147.278 28.756C146.478 28.756 145.774 28.636 145.166 28.396C144.558 28.156 144.054 27.788 143.654 27.292C143.222 26.812 142.902 26.188 142.694 25.42C142.502 24.652 142.406 23.74 142.406 22.684C142.406 21.676 142.51 20.796 142.718 20.044C142.942 19.292 143.278 18.652 143.726 18.124C144.158 17.628 144.67 17.252 145.262 16.996C145.854 16.74 146.526 16.612 147.278 16.612C148.014 16.612 148.678 16.74 149.27 16.996C149.862 17.252 150.382 17.628 150.83 18.124C151.262 18.652 151.59 19.292 151.814 20.044C152.038 20.796 152.15 21.676 152.15 22.684C152.15 23.74 152.038 24.652 151.814 25.42C151.606 26.188 151.302 26.812 150.902 27.292C150.47 27.788 149.95 28.156 149.342 28.396C148.734 28.636 148.046 28.756 147.278 28.756ZM158.63 20.548C158.422 20.596 158.206 20.644 157.982 20.692C157.758 20.74 157.526 20.764 157.286 20.764V29.476H153.47V10.06H157.286V16.684H158.63V10.06H162.422V29.476H158.63V20.548Z" fill="#22252A"/>
<path d="M7.88898 18.868C8.00098 18.324 8.09698 17.748 8.17698 17.14C8.27298 16.516 8.34498 15.86 8.39298 15.172C8.44098 14.5 8.46498 13.78 8.46498 13.012C8.46498 12.228 8.45698 11.388 8.44098 10.492H12.377C12.393 11.692 12.393 12.788 12.377 13.78C12.377 14.772 12.353 15.652 12.305 16.42C12.257 16.868 12.201 17.308 12.137 17.74C12.089 18.156 12.041 18.556 11.993 18.94C12.393 19.452 12.785 19.98 13.169 20.524C13.553 21.052 13.921 21.596 14.273 22.156C14.625 22.764 14.953 23.38 15.257 24.004C15.577 24.628 15.881 25.26 16.169 25.9L13.265 27.964C12.945 27.292 12.625 26.644 12.305 26.02C11.985 25.38 11.657 24.764 11.321 24.172C11.225 24.028 11.121 23.876 11.009 23.716C10.913 23.54 10.817 23.38 10.721 23.236C10.673 23.364 10.617 23.492 10.553 23.62C10.505 23.732 10.449 23.844 10.385 23.956C10.337 24.084 10.281 24.204 10.217 24.316C10.169 24.428 10.121 24.54 10.073 24.652C9.73698 25.324 9.36098 25.98 8.94498 26.62C8.54498 27.244 8.10498 27.844 7.62498 28.42L4.55298 25.66C4.74498 25.42 4.92898 25.164 5.10498 24.892C5.29698 24.62 5.48898 24.324 5.68098 24.004C5.84098 23.716 6.00098 23.428 6.16098 23.14C6.33698 22.836 6.49698 22.524 6.64098 22.204C6.78498 21.9 6.92098 21.596 7.04898 21.292C7.17698 20.988 7.30498 20.692 7.43298 20.404C7.52898 20.116 7.61698 19.852 7.69698 19.612C7.77698 19.356 7.84098 19.108 7.88898 18.868ZM16.769 29.404V19.516C16.481 19.564 16.193 19.596 15.905 19.612C15.617 19.612 15.329 19.612 15.041 19.612C14.753 19.628 14.505 19.636 14.297 19.636C14.089 19.636 13.929 19.636 13.817 19.636V15.796H16.769V10.06H20.585V29.404H16.769ZM21.761 29.404V10.06H25.553V29.404H21.761Z" fill="#22252A"/>
</svg>
