<svg width="200" height="140" viewBox="0 0 200 140" fill="none" xmlns="http://www.w3.org/2000/svg">
<rect x="41.25" y="12.25" width="117.5" height="117.5" rx="58.75" fill="#D7F0E1" stroke="#28883B" stroke-width="2.5"/>
<g opacity="0.9" clip-path="url(#clip0_40_3673)">
<g filter="url(#filter0_d_40_3673)">
<path d="M82.8333 49.2281C82.8333 47.1691 84.5024 45.5 86.5613 45.5H104.083V58.25H82.8333V49.2281Z" fill="#4EA16B"/>
<path d="M125.333 49.2281C125.333 47.1691 123.664 45.5 121.605 45.5H104.083V58.25H125.333V49.2281Z" fill="#63C287"/>
<path d="M125.333 58.25H104.083V71H125.333V58.25Z" fill="#4EA16B"/>
<path d="M125.333 71H104.083V83.75H125.333V71Z" fill="#387A47"/>
<path d="M104.083 58.25H82.8335V71H104.083V58.25Z" fill="#387A47"/>
<path d="M104.083 71H82.8335V83.75H104.083V71Z" fill="#2D5B3A"/>
<path d="M82.8333 92.7719C82.8333 94.8309 84.5024 96.5 86.5613 96.5H104.083V83.75H82.8333V92.7719Z" fill="#2D5B3A"/>
<path d="M125.333 92.7719C125.333 94.8309 123.664 96.5 121.605 96.5H104.083V83.75H125.333V92.7719Z" fill="#2D5B3A"/>
</g>
<g filter="url(#filter1_d_40_3673)">
<rect x="68.6667" y="55.4168" width="29.75" height="29.75" rx="3.72807" fill="#377744"/>
</g>
<g clip-path="url(#clip1_40_3673)">
<path fill-rule="evenodd" clip-rule="evenodd" d="M90.6165 78.0672L85.2634 70.1384L90.3484 62.5047H86.8271L83.4954 67.5079L80.1257 62.5047H76.6045L81.7475 70.1314L76.4583 78.0672H79.9795L83.5188 72.7566L87.0952 78.0672H90.6165Z" fill="white"/>
</g>
</g>
<path d="M177.86 110.466C178.222 109.366 179.778 109.366 180.14 110.466L181.781 115.454C181.9 115.816 182.184 116.1 182.546 116.219L187.534 117.86C188.634 118.222 188.634 119.778 187.534 120.14L182.546 121.781C182.184 121.9 181.9 122.184 181.781 122.546L180.14 127.534C179.778 128.634 178.222 128.634 177.86 127.534L176.219 122.546C176.1 122.184 175.816 121.9 175.454 121.781L170.466 120.14C169.366 119.778 169.366 118.222 170.466 117.86L175.454 116.219C175.816 116.1 176.1 115.816 176.219 115.454L177.86 110.466Z" fill="#638DF7"/>
<path d="M29.0501 5.88841C29.3516 4.97164 30.6484 4.97164 30.9499 5.88841L32.3171 10.0454C32.4163 10.3471 32.6529 10.5837 32.9546 10.6829L37.1116 12.0501C38.0284 12.3516 38.0284 13.6484 37.1116 13.9499L32.9546 15.3171C32.6529 15.4163 32.4163 15.6529 32.3171 15.9546L30.9499 20.1116C30.6484 21.0284 29.3516 21.0284 29.0501 20.1116L27.6829 15.9546C27.5837 15.6529 27.3471 15.4163 27.0454 15.3171L22.8884 13.9499C21.9716 13.6484 21.9716 12.3516 22.8884 12.0501L27.0454 10.6829C27.3471 10.5837 27.5837 10.3471 27.6829 10.0454L29.0501 5.88841Z" fill="#F79863"/>
<circle cx="16.5" cy="25.5" r="3.5" fill="#F7D663"/>
<circle cx="143" cy="28" r="19" fill="#359C4A" stroke="#28883B" stroke-width="2"/>
<path d="M139.391 24.8531L143 28.4625L146.609 24.8531" stroke="white" stroke-width="2.5" stroke-linecap="round" stroke-linejoin="round"/>
<path d="M143 18.8375V28.4625" stroke="white" stroke-width="2.5" stroke-linecap="round" stroke-linejoin="round"/>
<path d="M150.562 29.4625V34.275C150.562 34.4574 150.49 34.6322 150.361 34.7612C150.232 34.8901 150.057 34.9625 149.875 34.9625H136.125C135.943 34.9625 135.768 34.8901 135.639 34.7612C135.51 34.6322 135.438 34.4574 135.438 34.275V29.4625" stroke="white" stroke-width="2.5" stroke-linecap="round" stroke-linejoin="round"/>
<defs>
<filter id="filter0_d_40_3673" x="79.1052" y="41.7719" width="53.6842" height="62.1842" filterUnits="userSpaceOnUse" color-interpolation-filters="sRGB">
<feFlood flood-opacity="0" result="BackgroundImageFix"/>
<feColorMatrix in="SourceAlpha" type="matrix" values="0 0 0 0 0 0 0 0 0 0 0 0 0 0 0 0 0 0 127 0" result="hardAlpha"/>
<feOffset dx="1.86404" dy="1.86404"/>
<feGaussianBlur stdDeviation="2.79605"/>
<feComposite in2="hardAlpha" operator="out"/>
<feColorMatrix type="matrix" values="0 0 0 0 0 0 0 0 0 0 0 0 0 0 0 0 0 0 0.2 0"/>
<feBlend mode="normal" in2="BackgroundImageFix" result="effect1_dropShadow_40_3673"/>
<feBlend mode="normal" in="SourceGraphic" in2="effect1_dropShadow_40_3673" result="shape"/>
</filter>
<filter id="filter1_d_40_3673" x="64.9387" y="51.6887" width="40.9342" height="40.9342" filterUnits="userSpaceOnUse" color-interpolation-filters="sRGB">
<feFlood flood-opacity="0" result="BackgroundImageFix"/>
<feColorMatrix in="SourceAlpha" type="matrix" values="0 0 0 0 0 0 0 0 0 0 0 0 0 0 0 0 0 0 127 0" result="hardAlpha"/>
<feOffset dx="1.86404" dy="1.86404"/>
<feGaussianBlur stdDeviation="2.79605"/>
<feComposite in2="hardAlpha" operator="out"/>
<feColorMatrix type="matrix" values="0 0 0 0 0 0 0 0 0 0 0 0 0 0 0 0 0 0 0.15 0"/>
<feBlend mode="normal" in2="BackgroundImageFix" result="effect1_dropShadow_40_3673"/>
<feBlend mode="normal" in="SourceGraphic" in2="effect1_dropShadow_40_3673" result="shape"/>
</filter>
<clipPath id="clip0_40_3673">
<rect width="68" height="68" fill="white" transform="translate(63 37)"/>
</clipPath>
<clipPath id="clip1_40_3673">
<rect width="14.1667" height="15.5833" fill="white" transform="translate(76.4583 62.5)"/>
</clipPath>
</defs>
</svg>
