<svg width="40" height="40" viewBox="0 0 40 40" fill="none" xmlns="http://www.w3.org/2000/svg">
<circle cx="20" cy="20" r="20" fill="#4174F5"/>
<path d="M24.1422 17.568H28.2672V13.443" stroke="white" stroke-width="1.5" stroke-linecap="round" stroke-linejoin="round"/>
<path d="M14.6547 14.6547C15.3563 13.9521 16.1895 13.3947 17.1067 13.0144C18.0239 12.634 19.0071 12.4383 20 12.4383C20.9929 12.4383 21.9761 12.634 22.8933 13.0144C23.8105 13.3947 24.6437 13.9521 25.3453 14.6547L28.2672 17.568" stroke="white" stroke-width="1.5" stroke-linecap="round" stroke-linejoin="round"/>
<path d="M15.8578 22.432H11.7328V26.557" stroke="white" stroke-width="1.5" stroke-linecap="round" stroke-linejoin="round"/>
<path d="M25.3453 25.3453C24.6437 26.0479 23.8105 26.6053 22.8933 26.9856C21.9761 27.3659 20.9929 27.5617 20 27.5617C19.0071 27.5617 18.0239 27.3659 17.1067 26.9856C16.1895 26.6053 15.3563 26.0479 14.6547 25.3453L11.7328 22.432" stroke="white" stroke-width="1.5" stroke-linecap="round" stroke-linejoin="round"/>
</svg>
