<svg width="40" height="40" viewBox="0 0 40 40" fill="none" xmlns="http://www.w3.org/2000/svg">
<circle cx="20" cy="20" r="20" fill="#4174F5"/>
<path d="M19.3125 23.4375V27.5625H21.7188" stroke="white" stroke-width="1.5" stroke-linecap="round" stroke-linejoin="round"/>
<path d="M13.4688 23.4375L16.5625 27.5625" stroke="white" stroke-width="1.5" stroke-linecap="round" stroke-linejoin="round"/>
<path d="M16.5625 23.4375L13.4688 27.5625" stroke="white" stroke-width="1.5" stroke-linecap="round" stroke-linejoin="round"/>
<path d="M24.125 27.2188C24.4975 27.4966 24.9494 27.6472 25.4141 27.6484C26.1875 27.6484 26.875 27.3906 26.875 26.5312C26.875 25.1562 24.125 25.7578 24.125 24.4688C24.125 23.7812 24.6406 23.3516 25.4141 23.3516C25.8787 23.3528 26.3307 23.5034 26.7031 23.7812" stroke="white" stroke-width="1.5" stroke-linecap="round" stroke-linejoin="round"/>
<path d="M13 20V12.6667C13 12.4899 13.0737 12.3203 13.205 12.1953C13.3363 12.0702 13.5143 12 13.7 12H22.1L27 16.6667V20" stroke="white" stroke-width="1.5" stroke-linecap="round" stroke-linejoin="round"/>
<path d="M21 12V18H27" stroke="white" stroke-width="1.5" stroke-linecap="round" stroke-linejoin="round"/>
</svg>
