<svg width="293" height="235" viewBox="0 0 293 235" fill="none" xmlns="http://www.w3.org/2000/svg">
<g clip-path="url(#clip0_20_70)">
<rect width="293" height="235" rx="20" fill="#EFF0EF"/>
<rect x="29.4098" y="28.4098" width="264.18" height="28.1803" fill="#EFF9F3" stroke="#DBDBDB" stroke-width="0.819672"/>
<rect x="29.5" y="84.5" width="264" height="29" fill="white" stroke="#DBDBDB"/>
<rect x="29.5" y="113.5" width="264" height="28" fill="white" stroke="#DBDBDB"/>
<rect x="29.5" y="141.5" width="264" height="29" fill="white" stroke="#DBDBDB"/>
<rect x="29.5" y="170.5" width="264" height="28" fill="white" stroke="#DBDBDB"/>
<rect x="29.5" y="56.5" width="264" height="28" fill="white" stroke="#DBDBDB"/>
<path d="M45.2212 40.4082C45.217 41.3307 45.09 42.2088 44.8403 43.0425C44.5949 43.8719 44.231 44.6104 43.7485 45.2578C43.2703 45.9053 42.6991 46.3983 42.0347 46.7368L41.1587 45.5942C41.7596 45.3107 42.278 44.8981 42.7139 44.3564C43.154 43.8105 43.4883 43.1969 43.7168 42.5156C43.9495 41.8343 44.068 41.1318 44.0723 40.4082V38.5737H45.2212V40.4082ZM45.4751 40.4082C45.4751 41.1064 45.5851 41.7814 45.8052 42.4331C46.0295 43.0848 46.3511 43.6709 46.77 44.1914C47.1932 44.7119 47.6925 45.1118 48.2681 45.3911L47.4175 46.5146C46.77 46.1888 46.2157 45.7148 45.7544 45.0928C45.2931 44.4707 44.9419 43.7598 44.7007 42.96C44.4637 42.1559 44.3473 41.3053 44.3516 40.4082V38.5737H45.4751V40.4082ZM50.3691 49.1172H48.96V37.6533H50.3691V49.1172ZM52.1401 43.3535H50.0518V42.1538H52.1401V43.3535ZM61.4204 41.4048H58.4497V40.2686H61.4204V41.4048ZM55.8027 38.1611C56.3656 38.1611 56.8755 38.2754 57.3325 38.5039C57.7896 38.7324 58.1493 39.054 58.4116 39.4688C58.674 39.8792 58.8073 40.3405 58.8115 40.8525C58.8073 41.373 58.674 41.8407 58.4116 42.2554C58.1493 42.6659 57.7896 42.9875 57.3325 43.2202C56.8755 43.453 56.3656 43.5693 55.8027 43.5693C55.223 43.5693 54.7025 43.453 54.2412 43.2202C53.7799 42.9875 53.4202 42.6659 53.1621 42.2554C52.904 41.8407 52.7749 41.373 52.7749 40.8525C52.7749 40.3405 52.904 39.8792 53.1621 39.4688C53.4202 39.054 53.7799 38.7324 54.2412 38.5039C54.7025 38.2754 55.223 38.1611 55.8027 38.1611ZM55.8027 39.3481C55.4727 39.3439 55.1807 39.4032 54.9268 39.5259C54.6729 39.6444 54.474 39.82 54.3301 40.0527C54.1862 40.2855 54.1143 40.5521 54.1143 40.8525C54.1143 41.1572 54.1862 41.4238 54.3301 41.6523C54.474 41.8809 54.6729 42.0607 54.9268 42.1919C55.1807 42.3188 55.4727 42.3844 55.8027 42.3887C56.1201 42.3844 56.4058 42.3188 56.6597 42.1919C56.9136 42.0607 57.1104 41.8809 57.25 41.6523C57.3896 41.4238 57.4595 41.1572 57.4595 40.8525C57.4595 40.5521 57.3896 40.2855 57.25 40.0527C57.1104 39.82 56.9136 39.6444 56.6597 39.5259C56.41 39.4032 56.1243 39.3439 55.8027 39.3481ZM62.2266 43.8169H60.8174V37.6533H62.2266V43.8169ZM56.063 45.5625H60.8174V44.3438H62.2266V48.9839H54.6665V44.3438H56.063V45.5625ZM60.8174 47.8413V46.6606H56.063V47.8413H60.8174ZM67.6792 40.9033C67.6792 41.7539 67.5459 42.5812 67.2793 43.3853C67.0169 44.1893 66.6403 44.9066 66.1494 45.5371C65.6585 46.1676 65.0894 46.6374 64.4419 46.9463L63.6104 45.8354C64.1986 45.5562 64.717 45.152 65.1655 44.623C65.6141 44.0898 65.9569 43.4995 66.1938 42.8521C66.4351 42.2046 66.5578 41.555 66.562 40.9033V39.3926H67.6792V40.9033ZM67.9712 40.9033C67.967 41.5127 68.0791 42.1221 68.3076 42.7314C68.5361 43.3366 68.8662 43.8888 69.2979 44.3882C69.7337 44.8875 70.2458 45.2747 70.834 45.5498L70.0405 46.6606C69.3931 46.356 68.8281 45.9053 68.3457 45.3086C67.8633 44.7077 67.493 44.0243 67.2349 43.2583C66.9767 42.4924 66.8477 41.7074 66.8477 40.9033V39.3926H67.9712V40.9033ZM70.3706 39.9448H64.0547V38.7896H70.3706V39.9448ZM72.8398 49.1172H71.4307V37.6533H72.8398V49.1172ZM74.6108 43.3091H72.5225V42.1221H74.6108V43.3091ZM85.5605 44.1279H75.0933V42.9663H85.5605V44.1279ZM84.3545 42.0713H76.3818V40.9351H84.3545V42.0713ZM84.2847 39.1641H77.772V41.5063H76.3818V38.0151H84.2847V39.1641ZM80.3047 44.9214C81.1299 44.9214 81.8387 45.0018 82.4312 45.1626C83.0236 45.3234 83.4785 45.5625 83.7959 45.8799C84.1175 46.193 84.2783 46.5697 84.2783 47.0098C84.2783 47.4541 84.1196 47.8328 83.8022 48.146C83.4891 48.4634 83.0342 48.7025 82.4375 48.8633C81.8408 49.0283 81.1299 49.1108 80.3047 49.1108C79.471 49.1108 78.7559 49.0283 78.1592 48.8633C77.5625 48.7025 77.1034 48.4634 76.7817 48.146C76.4644 47.8328 76.3057 47.4541 76.3057 47.0098C76.3057 46.5697 76.4644 46.193 76.7817 45.8799C77.1034 45.5625 77.5625 45.3234 78.1592 45.1626C78.7559 45.0018 79.471 44.9214 80.3047 44.9214ZM80.3047 46.0005C79.7503 46.0047 79.2827 46.0449 78.9019 46.1211C78.521 46.1973 78.2311 46.3115 78.0322 46.4639C77.8376 46.612 77.7424 46.7939 77.7466 47.0098C77.7424 47.234 77.8376 47.4224 78.0322 47.5747C78.2311 47.7228 78.5189 47.835 78.8955 47.9111C79.2764 47.9873 79.7461 48.0275 80.3047 48.0317C80.8548 48.0275 81.3203 47.9873 81.7012 47.9111C82.0863 47.835 82.3761 47.7228 82.5708 47.5747C82.7655 47.4224 82.8628 47.234 82.8628 47.0098C82.8628 46.7939 82.7633 46.612 82.5645 46.4639C82.3656 46.3115 82.0757 46.1973 81.6948 46.1211C81.3182 46.0449 80.8548 46.0047 80.3047 46.0005ZM96.8022 44.9976H86.3159V43.8613H96.8022V44.9976ZM95.5073 40.897H89.0454V42.249H87.6426V39.8687H94.0854V39.0117H87.6108V37.9009H95.5073V40.897ZM95.7295 42.9092H87.6426V41.811H95.7295V42.9092ZM92.251 44.4707H90.8545V42.3379H92.251V44.4707ZM95.5708 49.0537H94.1426V46.8447H87.4839V45.7212H95.5708V49.0537ZM106.127 41.9126H103.029V40.7637H106.127V41.9126ZM107.168 46.1338H105.759V37.666H107.168V46.1338ZM107.416 48.9141H99.6016V47.7588H107.416V48.9141ZM101.036 48.3872H99.6016V45.2959H101.036V48.3872ZM99.4937 40.2686H102.058V38.4214H103.448V44.2739H98.0781V38.4214H99.4937V40.2686ZM102.058 43.1504V41.354H99.4937V43.1504H102.058ZM118.752 40.332H109.263V39.1895H118.752V40.332ZM119.286 47.8984H108.799V46.7559H119.286V47.8984ZM114.703 47.1938H113.312V45.1055H114.703V47.1938ZM114.011 40.9224C114.794 40.9181 115.475 41.0049 116.055 41.1826C116.639 41.3561 117.087 41.61 117.4 41.9443C117.714 42.2744 117.87 42.668 117.87 43.125C117.87 43.5905 117.714 43.9904 117.4 44.3247C117.087 44.659 116.641 44.9172 116.061 45.0991C115.481 45.2769 114.798 45.3678 114.011 45.3721C113.215 45.3678 112.525 45.2769 111.941 45.0991C111.362 44.9172 110.915 44.659 110.602 44.3247C110.293 43.9904 110.139 43.5905 110.139 43.125C110.139 42.668 110.293 42.2744 110.602 41.9443C110.915 41.61 111.362 41.3561 111.941 41.1826C112.525 41.0049 113.215 40.9181 114.011 40.9224ZM114.011 42.0269C113.486 42.0269 113.044 42.0692 112.684 42.1538C112.324 42.2342 112.049 42.3569 111.859 42.522C111.673 42.6828 111.582 42.8838 111.586 43.125C111.582 43.3662 111.673 43.5693 111.859 43.7344C112.049 43.8994 112.324 44.0243 112.684 44.1089C113.044 44.1935 113.486 44.2358 114.011 44.2358C114.527 44.2358 114.963 44.1935 115.318 44.1089C115.678 44.0243 115.951 43.8994 116.137 43.7344C116.328 43.5693 116.423 43.3662 116.423 43.125C116.423 42.888 116.328 42.687 116.137 42.522C115.951 42.3569 115.678 42.2342 115.318 42.1538C114.963 42.0692 114.527 42.0269 114.011 42.0269ZM114.703 39.894H113.312V37.7993H114.703V39.894Z" fill="black"/>
<path d="M45.1514 76.127C44.415 76.127 43.7824 75.9429 43.2534 75.5747C42.7287 75.2023 42.3245 74.6649 42.041 73.9624C41.7617 73.2557 41.6221 72.403 41.6221 71.4043C41.6221 70.4141 41.7617 69.5656 42.041 68.8589C42.3245 68.1479 42.7287 67.6084 43.2534 67.2402C43.7824 66.8678 44.415 66.6816 45.1514 66.6816C45.8792 66.6816 46.5098 66.8678 47.043 67.2402C47.5762 67.6084 47.9824 68.1479 48.2617 68.8589C48.541 69.5656 48.6807 70.4141 48.6807 71.4043C48.6807 72.403 48.541 73.2557 48.2617 73.9624C47.9867 74.6691 47.5825 75.2065 47.0493 75.5747C46.5203 75.9429 45.8877 76.127 45.1514 76.127ZM45.1514 74.7368C45.5365 74.7368 45.8687 74.612 46.1479 74.3623C46.4315 74.1084 46.6452 73.7339 46.7891 73.2388C46.9372 72.7394 47.0112 72.1279 47.0112 71.4043C47.0112 70.6849 46.9351 70.0755 46.7827 69.5762C46.6346 69.0726 46.4209 68.6938 46.1416 68.4399C45.8665 68.1818 45.5365 68.0527 45.1514 68.0527C44.7663 68.0527 44.4341 68.1818 44.1548 68.4399C43.8797 68.6938 43.666 69.0726 43.5137 69.5762C43.3613 70.0755 43.2852 70.6849 43.2852 71.4043C43.2852 72.1279 43.3613 72.7394 43.5137 73.2388C43.666 73.7339 43.8797 74.1084 44.1548 74.3623C44.4299 74.612 44.762 74.7368 45.1514 74.7368ZM53.7969 76H52.1338V68.4209H52.083L49.9312 69.7983V68.2812L52.21 66.8086H53.7969V76ZM56.0312 74.8003L59.2749 71.6772C59.6261 71.3218 59.8991 71.0298 60.0938 70.8013C60.2884 70.5728 60.4365 70.3485 60.5381 70.1284C60.6439 69.9041 60.6968 69.6672 60.6968 69.4175C60.6968 69.1424 60.627 68.8991 60.4873 68.6875C60.3477 68.4759 60.1572 68.313 59.916 68.1987C59.679 68.0802 59.4103 68.021 59.1099 68.021C58.8009 68.021 58.5301 68.0845 58.2974 68.2114C58.0646 68.3341 57.8826 68.5119 57.7515 68.7446C57.6245 68.9731 57.561 69.2419 57.561 69.5508H55.9932C55.9889 68.9795 56.1201 68.478 56.3867 68.0464C56.6533 67.6105 57.0257 67.2741 57.5039 67.0371C57.9821 66.8001 58.5259 66.6816 59.1353 66.6816C59.7489 66.6816 60.2926 66.7959 60.7666 67.0244C61.2448 67.2529 61.6151 67.5682 61.8774 67.9702C62.144 68.3722 62.2773 68.8293 62.2773 69.3413C62.2731 69.6968 62.2033 70.0396 62.0679 70.3696C61.9367 70.6997 61.7039 71.0658 61.3696 71.4678C61.0396 71.8698 60.5741 72.3543 59.9731 72.9214L58.3354 74.5464V74.6162H62.417V76H56.0376L56.0312 74.8003ZM68.0537 72.0708H63.915V70.7378H68.0537V72.0708ZM72.8779 76.127C72.2305 76.127 71.6507 76.0169 71.1387 75.7969C70.6309 75.5768 70.2288 75.2679 69.9326 74.8701C69.6406 74.4681 69.4883 74.0132 69.4756 73.5054H71.145C71.1577 73.7508 71.2424 73.9666 71.3989 74.1528C71.5555 74.3348 71.7607 74.4766 72.0146 74.5781C72.2686 74.6797 72.5542 74.7305 72.8716 74.7305C73.2101 74.7305 73.5127 74.6733 73.7793 74.5591C74.0459 74.4448 74.2533 74.284 74.4014 74.0767C74.5495 73.8693 74.6214 73.6323 74.6172 73.3657C74.6172 73.0864 74.5431 72.8389 74.395 72.623C74.2469 72.4072 74.0269 72.2401 73.7349 72.1216C73.4471 71.9989 73.1064 71.9375 72.7129 71.9375H71.894V70.6616H72.7129C73.0345 70.6616 73.3223 70.6066 73.5762 70.4966C73.8301 70.3823 74.0247 70.2236 74.1602 70.0205C74.2998 69.8174 74.3696 69.5846 74.3696 69.3223C74.3696 69.0684 74.3083 68.8441 74.1855 68.6494C74.0671 68.4505 73.8957 68.2961 73.6714 68.186C73.4513 68.076 73.1932 68.021 72.897 68.021C72.605 68.0252 72.3363 68.0781 72.0908 68.1797C71.8454 68.2812 71.6465 68.4272 71.4941 68.6177C71.3418 68.8081 71.2614 69.0303 71.2529 69.2842H69.6597C69.6724 68.7764 69.8226 68.3257 70.1104 67.9321C70.4023 67.5343 70.7917 67.2275 71.2783 67.0117C71.765 66.7917 72.3066 66.6816 72.9033 66.6816C73.5127 66.6816 74.048 66.7959 74.5093 67.0244C74.9748 67.2487 75.3345 67.5555 75.5884 67.9448C75.8423 68.3299 75.9671 68.7573 75.9629 69.2271C75.9671 69.5656 75.8994 69.8724 75.7598 70.1475C75.6243 70.4225 75.4276 70.651 75.1694 70.833C74.9113 71.015 74.6151 71.1419 74.2808 71.2139V71.2837C74.7082 71.3429 75.0742 71.4699 75.3789 71.6646C75.6878 71.855 75.9206 72.1047 76.0771 72.4136C76.2337 72.7183 76.312 73.0632 76.312 73.4482C76.312 73.9561 76.1639 74.4131 75.8677 74.8193C75.5757 75.2256 75.1673 75.5451 74.6426 75.7778C74.1221 76.0106 73.5339 76.127 72.8779 76.127ZM77.5815 72.9722L81.5552 66.8086H82.647V68.6875H81.9678L79.2764 72.8579V72.9341H84.8242V74.2861H77.5815V72.9722ZM82.0439 73.8926L82.063 73.2959V66.8086H83.6245V76H82.0439V73.8926ZM90.3467 72.0708H86.208V70.7378H90.3467V72.0708ZM95.1836 76.127C94.5785 76.127 94.0326 76.0148 93.5459 75.7905C93.0592 75.562 92.6742 75.251 92.3906 74.8574C92.1113 74.4596 91.9632 74.009 91.9463 73.5054H93.5522C93.5692 73.7508 93.6517 73.9709 93.7998 74.1655C93.9521 74.3602 94.1489 74.5146 94.3901 74.6289C94.6313 74.7389 94.8958 74.7918 95.1836 74.7876C95.5221 74.7876 95.8247 74.7114 96.0913 74.5591C96.3579 74.4067 96.5674 74.1973 96.7197 73.9307C96.8721 73.6641 96.9482 73.3615 96.9482 73.0229C96.9482 72.6802 96.87 72.3734 96.7134 72.1025C96.561 71.8275 96.3473 71.6138 96.0723 71.4614C95.7972 71.3049 95.484 71.2266 95.1328 71.2266C94.7689 71.2223 94.46 71.2858 94.2061 71.417C93.9521 71.5439 93.7533 71.7428 93.6094 72.0137H92.0796L92.6318 66.8086H98.0591V68.1924H93.9966L93.7173 70.6362H93.7935C93.9797 70.4289 94.2314 70.2617 94.5488 70.1348C94.8662 70.0036 95.2111 69.9359 95.5835 69.9316C96.1421 69.9316 96.6478 70.0628 97.1006 70.3252C97.5576 70.5833 97.9131 70.9451 98.167 71.4106C98.4251 71.8761 98.5542 72.3988 98.5542 72.9785C98.5542 73.5837 98.4103 74.1253 98.1226 74.6035C97.8348 75.0817 97.4349 75.4562 96.9229 75.7271C96.415 75.9937 95.8353 76.127 95.1836 76.127ZM103.391 76.127C102.739 76.1227 102.145 75.9767 101.607 75.689C101.07 75.397 100.634 74.9209 100.3 74.2607C99.9655 73.5964 99.8005 72.731 99.8047 71.6646C99.8047 70.6235 99.9549 69.7285 100.255 68.9795C100.56 68.2305 100.987 67.6613 101.538 67.272C102.088 66.8784 102.737 66.6816 103.486 66.6816C104.062 66.6816 104.58 66.7938 105.042 67.0181C105.507 67.2381 105.879 67.547 106.159 67.9448C106.442 68.3426 106.618 68.7891 106.686 69.2842H105.054C104.995 69.043 104.896 68.8356 104.756 68.6621C104.616 68.4844 104.438 68.349 104.223 68.2559C104.007 68.1628 103.761 68.1162 103.486 68.1162C103.042 68.1162 102.665 68.241 102.356 68.4907C102.048 68.7362 101.813 69.0938 101.652 69.5635C101.491 70.029 101.411 70.5854 101.411 71.2329H101.5C101.652 70.9663 101.849 70.7378 102.09 70.5474C102.331 70.3527 102.602 70.2067 102.902 70.1094C103.203 70.012 103.52 69.9634 103.854 69.9634C104.4 69.9634 104.896 70.0924 105.34 70.3506C105.784 70.6087 106.133 70.9663 106.387 71.4233C106.645 71.8761 106.774 72.3882 106.774 72.9595C106.774 73.5646 106.633 74.1084 106.349 74.5908C106.07 75.069 105.672 75.4456 105.156 75.7207C104.644 75.9958 104.056 76.1312 103.391 76.127ZM103.385 74.7876C103.719 74.7876 104.022 74.7093 104.292 74.5527C104.568 74.3919 104.783 74.1761 104.94 73.9053C105.097 73.6302 105.175 73.3276 105.175 72.9976C105.175 72.6717 105.099 72.3734 104.946 72.1025C104.794 71.8317 104.582 71.618 104.312 71.4614C104.041 71.3049 103.736 71.2266 103.397 71.2266C103.063 71.2266 102.758 71.307 102.483 71.4678C102.213 71.6243 101.995 71.8402 101.83 72.1152C101.669 72.3903 101.586 72.6865 101.582 73.0039C101.582 73.3255 101.662 73.6217 101.823 73.8926C101.984 74.1634 102.2 74.3813 102.471 74.5464C102.742 74.7072 103.046 74.7876 103.385 74.7876ZM112.5 68.2495V68.1924H107.873V66.8086H114.214V68.2241L110.228 76H108.514L112.5 68.2495ZM118.708 76.127C118.035 76.127 117.434 76.0148 116.905 75.7905C116.376 75.5662 115.962 75.2594 115.661 74.8701C115.365 74.4766 115.217 74.0322 115.217 73.5371C115.217 73.1562 115.304 72.8008 115.477 72.4707C115.651 72.1406 115.888 71.8677 116.188 71.6519C116.488 71.436 116.821 71.3006 117.185 71.2456V71.1885C116.867 71.1208 116.586 70.9896 116.34 70.7949C116.099 70.6003 115.909 70.359 115.769 70.0713C115.634 69.7835 115.566 69.4746 115.566 69.1445C115.566 68.679 115.701 68.2601 115.972 67.8877C116.243 67.5111 116.615 67.217 117.089 67.0054C117.568 66.7896 118.107 66.6816 118.708 66.6816C119.3 66.6816 119.836 66.7896 120.314 67.0054C120.792 67.217 121.167 67.5111 121.438 67.8877C121.713 68.2601 121.85 68.679 121.85 69.1445C121.85 69.4746 121.78 69.7835 121.641 70.0713C121.501 70.359 121.308 70.6003 121.063 70.7949C120.818 70.9896 120.538 71.1208 120.225 71.1885V71.2456C120.585 71.3006 120.915 71.436 121.215 71.6519C121.52 71.8677 121.759 72.1406 121.933 72.4707C122.11 72.8008 122.199 73.1562 122.199 73.5371C122.199 74.0322 122.049 74.4766 121.749 74.8701C121.452 75.2594 121.038 75.5662 120.504 75.7905C119.971 76.0148 119.372 76.127 118.708 76.127ZM118.708 74.8193C119.063 74.8193 119.375 74.7601 119.641 74.6416C119.912 74.5189 120.121 74.3517 120.27 74.1401C120.418 73.9243 120.492 73.6746 120.492 73.3911C120.492 73.1076 120.416 72.8516 120.263 72.623C120.111 72.3903 119.897 72.2083 119.622 72.0771C119.351 71.946 119.047 71.8804 118.708 71.8804C118.365 71.8804 118.058 71.946 117.788 72.0771C117.521 72.2041 117.309 72.384 117.153 72.6167C117 72.8452 116.924 73.1034 116.924 73.3911C116.924 73.6704 116.996 73.918 117.14 74.1338C117.288 74.3454 117.496 74.5125 117.762 74.6353C118.033 74.758 118.348 74.8193 118.708 74.8193ZM118.708 70.6553C119 70.6553 119.262 70.5981 119.495 70.4839C119.728 70.3654 119.91 70.2046 120.041 70.0015C120.172 69.7983 120.238 69.5656 120.238 69.3032C120.238 69.0451 120.172 68.8145 120.041 68.6113C119.914 68.4082 119.734 68.2516 119.501 68.1416C119.269 68.0316 119.004 67.9766 118.708 67.9766C118.403 67.9766 118.137 68.0316 117.908 68.1416C117.68 68.2516 117.5 68.4082 117.369 68.6113C117.242 68.8145 117.178 69.0451 117.178 69.3032C117.178 69.5656 117.244 69.7983 117.375 70.0015C117.506 70.2046 117.686 70.3654 117.915 70.4839C118.147 70.5981 118.412 70.6553 118.708 70.6553ZM126.839 66.6816C127.487 66.6859 128.079 66.8319 128.617 67.1196C129.154 67.4074 129.588 67.8813 129.918 68.5415C130.252 69.2017 130.419 70.0628 130.419 71.125C130.419 72.166 130.271 73.0632 129.975 73.8164C129.679 74.5654 129.251 75.1388 128.693 75.5366C128.139 75.9302 127.487 76.127 126.738 76.127C126.154 76.127 125.631 76.0148 125.17 75.7905C124.713 75.562 124.343 75.251 124.059 74.8574C123.78 74.4639 123.606 74.0132 123.539 73.5054H125.164C125.223 73.7466 125.324 73.9561 125.468 74.1338C125.612 74.3115 125.79 74.4491 126.001 74.5464C126.217 74.6437 126.463 74.6924 126.738 74.6924C127.178 74.6924 127.552 74.5675 127.861 74.3179C128.174 74.0682 128.411 73.7085 128.572 73.2388C128.733 72.769 128.816 72.2062 128.82 71.5503H128.725C128.572 71.8127 128.375 72.0391 128.134 72.2295C127.897 72.4157 127.626 72.5596 127.322 72.6611C127.021 72.7627 126.704 72.8135 126.37 72.8135C125.824 72.8135 125.329 72.6865 124.884 72.4326C124.444 72.1745 124.095 71.819 123.837 71.3662C123.579 70.9134 123.45 70.4035 123.45 69.8364C123.45 69.2355 123.589 68.696 123.869 68.2178C124.152 67.7354 124.55 67.3587 125.062 67.0879C125.578 66.8128 126.171 66.6774 126.839 66.6816ZM126.839 68.0146C126.505 68.0146 126.2 68.0951 125.925 68.2559C125.654 68.4124 125.441 68.6283 125.284 68.9033C125.128 69.1742 125.051 69.4704 125.056 69.792C125.056 70.1178 125.132 70.4162 125.284 70.687C125.437 70.9536 125.646 71.1652 125.913 71.3218C126.179 71.4784 126.482 71.5566 126.82 71.5566C127.15 71.5566 127.453 71.4741 127.728 71.3091C128.007 71.144 128.227 70.9261 128.388 70.6553C128.549 70.3844 128.629 70.0924 128.629 69.7793C128.629 69.4661 128.551 69.1742 128.395 68.9033C128.238 68.6325 128.024 68.4167 127.753 68.2559C127.483 68.0951 127.178 68.0146 126.839 68.0146Z" fill="black"/>
<path d="M45.1514 104.127C44.415 104.127 43.7824 103.943 43.2534 103.575C42.7287 103.202 42.3245 102.665 42.041 101.962C41.7617 101.256 41.6221 100.403 41.6221 99.4043C41.6221 98.4141 41.7617 97.5656 42.041 96.8589C42.3245 96.1479 42.7287 95.6084 43.2534 95.2402C43.7824 94.8678 44.415 94.6816 45.1514 94.6816C45.8792 94.6816 46.5098 94.8678 47.043 95.2402C47.5762 95.6084 47.9824 96.1479 48.2617 96.8589C48.541 97.5656 48.6807 98.4141 48.6807 99.4043C48.6807 100.403 48.541 101.256 48.2617 101.962C47.9867 102.669 47.5825 103.207 47.0493 103.575C46.5203 103.943 45.8877 104.127 45.1514 104.127ZM45.1514 102.737C45.5365 102.737 45.8687 102.612 46.1479 102.362C46.4315 102.108 46.6452 101.734 46.7891 101.239C46.9372 100.739 47.0112 100.128 47.0112 99.4043C47.0112 98.6849 46.9351 98.0755 46.7827 97.5762C46.6346 97.0726 46.4209 96.6938 46.1416 96.4399C45.8665 96.1818 45.5365 96.0527 45.1514 96.0527C44.7663 96.0527 44.4341 96.1818 44.1548 96.4399C43.8797 96.6938 43.666 97.0726 43.5137 97.5762C43.3613 98.0755 43.2852 98.6849 43.2852 99.4043C43.2852 100.128 43.3613 100.739 43.5137 101.239C43.666 101.734 43.8797 102.108 44.1548 102.362C44.4299 102.612 44.762 102.737 45.1514 102.737ZM53.7969 104H52.1338V96.4209H52.083L49.9312 97.7983V96.2812L52.21 94.8086H53.7969V104ZM59.3701 104.127C58.6973 104.127 58.0964 104.015 57.5674 103.791C57.0384 103.566 56.6237 103.259 56.3232 102.87C56.027 102.477 55.8789 102.032 55.8789 101.537C55.8789 101.156 55.9657 100.801 56.1392 100.471C56.3127 100.141 56.5496 99.8677 56.8501 99.6519C57.1506 99.436 57.4827 99.3006 57.8467 99.2456V99.1885C57.5293 99.1208 57.2479 98.9896 57.0024 98.7949C56.7612 98.6003 56.5708 98.359 56.4312 98.0713C56.2957 97.7835 56.228 97.4746 56.228 97.1445C56.228 96.679 56.3634 96.2601 56.6343 95.8877C56.9051 95.5111 57.2775 95.217 57.7515 95.0054C58.2297 94.7896 58.7692 94.6816 59.3701 94.6816C59.9626 94.6816 60.4979 94.7896 60.9761 95.0054C61.4543 95.217 61.8288 95.5111 62.0996 95.8877C62.3747 96.2601 62.5122 96.679 62.5122 97.1445C62.5122 97.4746 62.4424 97.7835 62.3027 98.0713C62.1631 98.359 61.9705 98.6003 61.7251 98.7949C61.4797 98.9896 61.2004 99.1208 60.8872 99.1885V99.2456C61.2469 99.3006 61.577 99.436 61.8774 99.6519C62.1821 99.8677 62.4212 100.141 62.5947 100.471C62.7725 100.801 62.8613 101.156 62.8613 101.537C62.8613 102.032 62.7111 102.477 62.4106 102.87C62.1144 103.259 61.6997 103.566 61.1665 103.791C60.6333 104.015 60.0345 104.127 59.3701 104.127ZM59.3701 102.819C59.7256 102.819 60.0366 102.76 60.3032 102.642C60.5741 102.519 60.7835 102.352 60.9316 102.14C61.0798 101.924 61.1538 101.675 61.1538 101.391C61.1538 101.108 61.0776 100.852 60.9253 100.623C60.7729 100.39 60.5592 100.208 60.2842 100.077C60.0133 99.946 59.7087 99.8804 59.3701 99.8804C59.0273 99.8804 58.7205 99.946 58.4497 100.077C58.1831 100.204 57.9715 100.384 57.8149 100.617C57.6626 100.845 57.5864 101.103 57.5864 101.391C57.5864 101.67 57.6584 101.918 57.8022 102.134C57.9504 102.345 58.1577 102.513 58.4243 102.635C58.6951 102.758 59.0104 102.819 59.3701 102.819ZM59.3701 98.6553C59.6621 98.6553 59.9245 98.5981 60.1572 98.4839C60.39 98.3654 60.5719 98.2046 60.7031 98.0015C60.8343 97.7983 60.8999 97.5656 60.8999 97.3032C60.8999 97.0451 60.8343 96.8145 60.7031 96.6113C60.5762 96.4082 60.3963 96.2516 60.1636 96.1416C59.9308 96.0316 59.6663 95.9766 59.3701 95.9766C59.0654 95.9766 58.7988 96.0316 58.5703 96.1416C58.3418 96.2516 58.1619 96.4082 58.0308 96.6113C57.9038 96.8145 57.8403 97.0451 57.8403 97.3032C57.8403 97.5656 57.9059 97.7983 58.0371 98.0015C58.1683 98.2046 58.3481 98.3654 58.5767 98.4839C58.8094 98.5981 59.0739 98.6553 59.3701 98.6553ZM68.4219 100.071H64.2832V98.7378H68.4219V100.071ZM73.2588 104.127C72.6536 104.127 72.1077 104.015 71.6211 103.791C71.1344 103.562 70.7493 103.251 70.4658 102.857C70.1865 102.46 70.0384 102.009 70.0215 101.505H71.6274C71.6444 101.751 71.7269 101.971 71.875 102.166C72.0273 102.36 72.2241 102.515 72.4653 102.629C72.7065 102.739 72.971 102.792 73.2588 102.788C73.5973 102.788 73.8999 102.711 74.1665 102.559C74.4331 102.407 74.6426 102.197 74.7949 101.931C74.9473 101.664 75.0234 101.361 75.0234 101.023C75.0234 100.68 74.9451 100.373 74.7886 100.103C74.6362 99.8275 74.4225 99.6138 74.1475 99.4614C73.8724 99.3049 73.5592 99.2266 73.208 99.2266C72.8441 99.2223 72.5352 99.2858 72.2812 99.417C72.0273 99.5439 71.8285 99.7428 71.6846 100.014H70.1548L70.707 94.8086H76.1343V96.1924H72.0718L71.7925 98.6362H71.8687C72.0549 98.4289 72.3066 98.2617 72.624 98.1348C72.9414 98.0036 73.2863 97.9359 73.6587 97.9316C74.2173 97.9316 74.723 98.0628 75.1758 98.3252C75.6328 98.5833 75.9883 98.9451 76.2422 99.4106C76.5003 99.8761 76.6294 100.399 76.6294 100.979C76.6294 101.584 76.4855 102.125 76.1978 102.604C75.91 103.082 75.5101 103.456 74.998 103.727C74.4902 103.994 73.9105 104.127 73.2588 104.127ZM82.3486 96.2495V96.1924H77.7212V94.8086H84.0625V96.2241L80.0762 104H78.3623L82.3486 96.2495ZM89.585 100.071H85.4463V98.7378H89.585V100.071ZM90.9878 100.972L94.9614 94.8086H96.0532V96.6875H95.374L92.6826 100.858V100.934H98.2305V102.286H90.9878V100.972ZM95.4502 101.893L95.4692 101.296V94.8086H97.0308V104H95.4502V101.893ZM102.902 104.127C102.229 104.127 101.629 104.015 101.1 103.791C100.571 103.566 100.156 103.259 99.8555 102.87C99.5592 102.477 99.4111 102.032 99.4111 101.537C99.4111 101.156 99.4979 100.801 99.6714 100.471C99.8449 100.141 100.082 99.8677 100.382 99.6519C100.683 99.436 101.015 99.3006 101.379 99.2456V99.1885C101.062 99.1208 100.78 98.9896 100.535 98.7949C100.293 98.6003 100.103 98.359 99.9634 98.0713C99.828 97.7835 99.7603 97.4746 99.7603 97.1445C99.7603 96.679 99.8957 96.2601 100.167 95.8877C100.437 95.5111 100.81 95.217 101.284 95.0054C101.762 94.7896 102.301 94.6816 102.902 94.6816C103.495 94.6816 104.03 94.7896 104.508 95.0054C104.986 95.217 105.361 95.5111 105.632 95.8877C105.907 96.2601 106.044 96.679 106.044 97.1445C106.044 97.4746 105.975 97.7835 105.835 98.0713C105.695 98.359 105.503 98.6003 105.257 98.7949C105.012 98.9896 104.733 99.1208 104.419 99.1885V99.2456C104.779 99.3006 105.109 99.436 105.41 99.6519C105.714 99.8677 105.953 100.141 106.127 100.471C106.305 100.801 106.394 101.156 106.394 101.537C106.394 102.032 106.243 102.477 105.943 102.87C105.647 103.259 105.232 103.566 104.699 103.791C104.166 104.015 103.567 104.127 102.902 104.127ZM102.902 102.819C103.258 102.819 103.569 102.76 103.835 102.642C104.106 102.519 104.316 102.352 104.464 102.14C104.612 101.924 104.686 101.675 104.686 101.391C104.686 101.108 104.61 100.852 104.458 100.623C104.305 100.39 104.091 100.208 103.816 100.077C103.546 99.946 103.241 99.8804 102.902 99.8804C102.56 99.8804 102.253 99.946 101.982 100.077C101.715 100.204 101.504 100.384 101.347 100.617C101.195 100.845 101.119 101.103 101.119 101.391C101.119 101.67 101.191 101.918 101.334 102.134C101.483 102.345 101.69 102.513 101.957 102.635C102.227 102.758 102.543 102.819 102.902 102.819ZM102.902 98.6553C103.194 98.6553 103.457 98.5981 103.689 98.4839C103.922 98.3654 104.104 98.2046 104.235 98.0015C104.367 97.7983 104.432 97.5656 104.432 97.3032C104.432 97.0451 104.367 96.8145 104.235 96.6113C104.108 96.4082 103.929 96.2516 103.696 96.1416C103.463 96.0316 103.199 95.9766 102.902 95.9766C102.598 95.9766 102.331 96.0316 102.103 96.1416C101.874 96.2516 101.694 96.4082 101.563 96.6113C101.436 96.8145 101.373 97.0451 101.373 97.3032C101.373 97.5656 101.438 97.7983 101.569 98.0015C101.701 98.2046 101.88 98.3654 102.109 98.4839C102.342 98.5981 102.606 98.6553 102.902 98.6553ZM111.027 104.127C110.422 104.127 109.876 104.015 109.39 103.791C108.903 103.562 108.518 103.251 108.234 102.857C107.955 102.46 107.807 102.009 107.79 101.505H109.396C109.413 101.751 109.495 101.971 109.644 102.166C109.796 102.36 109.993 102.515 110.234 102.629C110.475 102.739 110.74 102.792 111.027 102.788C111.366 102.788 111.668 102.711 111.935 102.559C112.202 102.407 112.411 102.197 112.563 101.931C112.716 101.664 112.792 101.361 112.792 101.023C112.792 100.68 112.714 100.373 112.557 100.103C112.405 99.8275 112.191 99.6138 111.916 99.4614C111.641 99.3049 111.328 99.2266 110.977 99.2266C110.613 99.2223 110.304 99.2858 110.05 99.417C109.796 99.5439 109.597 99.7428 109.453 100.014H107.923L108.476 94.8086H113.903V96.1924H109.84L109.561 98.6362H109.637C109.823 98.4289 110.075 98.2617 110.393 98.1348C110.71 98.0036 111.055 97.9359 111.427 97.9316C111.986 97.9316 112.492 98.0628 112.944 98.3252C113.401 98.5833 113.757 98.9451 114.011 99.4106C114.269 99.8761 114.398 100.399 114.398 100.979C114.398 101.584 114.254 102.125 113.966 102.604C113.679 103.082 113.279 103.456 112.767 103.727C112.259 103.994 111.679 104.127 111.027 104.127ZM120.117 96.2495V96.1924H115.49V94.8086H121.831V96.2241L117.845 104H116.131L120.117 96.2495ZM126.408 104.127C125.756 104.123 125.161 103.977 124.624 103.689C124.087 103.397 123.651 102.921 123.316 102.261C122.982 101.596 122.817 100.731 122.821 99.6646C122.821 98.6235 122.972 97.7285 123.272 96.9795C123.577 96.2305 124.004 95.6613 124.554 95.272C125.104 94.8784 125.754 94.6816 126.503 94.6816C127.078 94.6816 127.597 94.7938 128.058 95.0181C128.524 95.2381 128.896 95.547 129.175 95.9448C129.459 96.3426 129.634 96.7891 129.702 97.2842H128.071C128.012 97.043 127.912 96.8356 127.772 96.6621C127.633 96.4844 127.455 96.349 127.239 96.2559C127.023 96.1628 126.778 96.1162 126.503 96.1162C126.059 96.1162 125.682 96.241 125.373 96.4907C125.064 96.7362 124.829 97.0938 124.668 97.5635C124.508 98.029 124.427 98.5854 124.427 99.2329H124.516C124.668 98.9663 124.865 98.7378 125.106 98.5474C125.348 98.3527 125.618 98.2067 125.919 98.1094C126.219 98.012 126.537 97.9634 126.871 97.9634C127.417 97.9634 127.912 98.0924 128.356 98.3506C128.801 98.6087 129.15 98.9663 129.404 99.4233C129.662 99.8761 129.791 100.388 129.791 100.959C129.791 101.565 129.649 102.108 129.366 102.591C129.086 103.069 128.689 103.446 128.172 103.721C127.66 103.996 127.072 104.131 126.408 104.127ZM126.401 102.788C126.736 102.788 127.038 102.709 127.309 102.553C127.584 102.392 127.8 102.176 127.957 101.905C128.113 101.63 128.191 101.328 128.191 100.998C128.191 100.672 128.115 100.373 127.963 100.103C127.811 99.8317 127.599 99.618 127.328 99.4614C127.057 99.3049 126.753 99.2266 126.414 99.2266C126.08 99.2266 125.775 99.307 125.5 99.4678C125.229 99.6243 125.011 99.8402 124.846 100.115C124.685 100.39 124.603 100.687 124.599 101.004C124.599 101.326 124.679 101.622 124.84 101.893C125.001 102.163 125.216 102.381 125.487 102.546C125.758 102.707 126.063 102.788 126.401 102.788Z" fill="black"/>
<path d="M45.1006 133.127C44.4277 133.127 43.8268 133.015 43.2979 132.791C42.7689 132.566 42.3542 132.259 42.0537 131.87C41.7575 131.477 41.6094 131.032 41.6094 130.537C41.6094 130.156 41.6961 129.801 41.8696 129.471C42.0431 129.141 42.2801 128.868 42.5806 128.652C42.881 128.436 43.2132 128.301 43.5771 128.246V128.188C43.2598 128.121 42.9784 127.99 42.7329 127.795C42.4917 127.6 42.3013 127.359 42.1616 127.071C42.0262 126.784 41.9585 126.475 41.9585 126.145C41.9585 125.679 42.0939 125.26 42.3647 124.888C42.6356 124.511 43.008 124.217 43.4819 124.005C43.9601 123.79 44.4997 123.682 45.1006 123.682C45.693 123.682 46.2284 123.79 46.7065 124.005C47.1847 124.217 47.5592 124.511 47.8301 124.888C48.1051 125.26 48.2427 125.679 48.2427 126.145C48.2427 126.475 48.1729 126.784 48.0332 127.071C47.8936 127.359 47.701 127.6 47.4556 127.795C47.2101 127.99 46.9308 128.121 46.6177 128.188V128.246C46.9774 128.301 47.3075 128.436 47.6079 128.652C47.9126 128.868 48.1517 129.141 48.3252 129.471C48.5029 129.801 48.5918 130.156 48.5918 130.537C48.5918 131.032 48.4416 131.477 48.1411 131.87C47.8449 132.259 47.4302 132.566 46.897 132.791C46.3638 133.015 45.765 133.127 45.1006 133.127ZM45.1006 131.819C45.4561 131.819 45.7671 131.76 46.0337 131.642C46.3045 131.519 46.514 131.352 46.6621 131.14C46.8102 130.924 46.8843 130.675 46.8843 130.391C46.8843 130.108 46.8081 129.852 46.6558 129.623C46.5034 129.39 46.2897 129.208 46.0146 129.077C45.7438 128.946 45.4391 128.88 45.1006 128.88C44.7578 128.88 44.451 128.946 44.1802 129.077C43.9136 129.204 43.702 129.384 43.5454 129.617C43.3931 129.845 43.3169 130.103 43.3169 130.391C43.3169 130.67 43.3888 130.918 43.5327 131.134C43.6808 131.345 43.8882 131.513 44.1548 131.635C44.4256 131.758 44.7409 131.819 45.1006 131.819ZM45.1006 127.655C45.3926 127.655 45.6549 127.598 45.8877 127.484C46.1204 127.365 46.3024 127.205 46.4336 127.001C46.5648 126.798 46.6304 126.566 46.6304 126.303C46.6304 126.045 46.5648 125.814 46.4336 125.611C46.3066 125.408 46.1268 125.252 45.894 125.142C45.6613 125.032 45.3968 124.977 45.1006 124.977C44.7959 124.977 44.5293 125.032 44.3008 125.142C44.0723 125.252 43.8924 125.408 43.7612 125.611C43.6343 125.814 43.5708 126.045 43.5708 126.303C43.5708 126.566 43.6364 126.798 43.7676 127.001C43.8988 127.205 44.0786 127.365 44.3071 127.484C44.5399 127.598 44.8044 127.655 45.1006 127.655ZM53.3018 133.127C52.6289 133.127 52.028 133.015 51.499 132.791C50.9701 132.566 50.5553 132.259 50.2549 131.87C49.9587 131.477 49.8105 131.032 49.8105 130.537C49.8105 130.156 49.8973 129.801 50.0708 129.471C50.2443 129.141 50.4813 128.868 50.7817 128.652C51.0822 128.436 51.4144 128.301 51.7783 128.246V128.188C51.4609 128.121 51.1795 127.99 50.9341 127.795C50.6929 127.6 50.5024 127.359 50.3628 127.071C50.2274 126.784 50.1597 126.475 50.1597 126.145C50.1597 125.679 50.2951 125.26 50.5659 124.888C50.8368 124.511 51.2091 124.217 51.6831 124.005C52.1613 123.79 52.7008 123.682 53.3018 123.682C53.8942 123.682 54.4295 123.79 54.9077 124.005C55.3859 124.217 55.7604 124.511 56.0312 124.888C56.3063 125.26 56.4438 125.679 56.4438 126.145C56.4438 126.475 56.374 126.784 56.2344 127.071C56.0947 127.359 55.9022 127.6 55.6567 127.795C55.4113 127.99 55.132 128.121 54.8188 128.188V128.246C55.1785 128.301 55.5086 128.436 55.8091 128.652C56.1138 128.868 56.3529 129.141 56.5264 129.471C56.7041 129.801 56.793 130.156 56.793 130.537C56.793 131.032 56.6427 131.477 56.3423 131.87C56.0461 132.259 55.6313 132.566 55.0981 132.791C54.5649 133.015 53.9661 133.127 53.3018 133.127ZM53.3018 131.819C53.6572 131.819 53.9683 131.76 54.2349 131.642C54.5057 131.519 54.7152 131.352 54.8633 131.14C55.0114 130.924 55.0854 130.675 55.0854 130.391C55.0854 130.108 55.0093 129.852 54.8569 129.623C54.7046 129.39 54.4909 129.208 54.2158 129.077C53.945 128.946 53.6403 128.88 53.3018 128.88C52.959 128.88 52.6522 128.946 52.3813 129.077C52.1147 129.204 51.9032 129.384 51.7466 129.617C51.5942 129.845 51.5181 130.103 51.5181 130.391C51.5181 130.67 51.59 130.918 51.7339 131.134C51.882 131.345 52.0894 131.513 52.356 131.635C52.6268 131.758 52.9421 131.819 53.3018 131.819ZM53.3018 127.655C53.5938 127.655 53.8561 127.598 54.0889 127.484C54.3216 127.365 54.5036 127.205 54.6348 127.001C54.766 126.798 54.8315 126.566 54.8315 126.303C54.8315 126.045 54.766 125.814 54.6348 125.611C54.5078 125.408 54.328 125.252 54.0952 125.142C53.8625 125.032 53.598 124.977 53.3018 124.977C52.9971 124.977 52.7305 125.032 52.502 125.142C52.2734 125.252 52.0936 125.408 51.9624 125.611C51.8354 125.814 51.772 126.045 51.772 126.303C51.772 126.566 51.8376 126.798 51.9688 127.001C52.0999 127.205 52.2798 127.365 52.5083 127.484C52.741 127.598 53.0055 127.655 53.3018 127.655ZM57.9927 129.972L61.9663 123.809H63.0581V125.688H62.3789L59.6875 129.858V129.934H65.2354V131.286H57.9927V129.972ZM62.4551 130.893L62.4741 130.296V123.809H64.0356V133H62.4551V130.893ZM70.7578 129.071H66.6191V127.738H70.7578V129.071ZM76.3184 125.25V125.192H71.6909V123.809H78.0322V125.224L74.0459 133H72.332L76.3184 125.25ZM82.501 133.127C81.8958 133.127 81.3499 133.015 80.8633 132.791C80.3766 132.562 79.9915 132.251 79.708 131.857C79.4287 131.46 79.2806 131.009 79.2637 130.505H80.8696C80.8866 130.751 80.9691 130.971 81.1172 131.166C81.2695 131.36 81.4663 131.515 81.7075 131.629C81.9487 131.739 82.2132 131.792 82.501 131.788C82.8395 131.788 83.1421 131.711 83.4087 131.559C83.6753 131.407 83.8848 131.197 84.0371 130.931C84.1895 130.664 84.2656 130.361 84.2656 130.023C84.2656 129.68 84.1873 129.373 84.0308 129.103C83.8784 128.827 83.6647 128.614 83.3896 128.461C83.1146 128.305 82.8014 128.227 82.4502 128.227C82.0863 128.222 81.7773 128.286 81.5234 128.417C81.2695 128.544 81.0706 128.743 80.9268 129.014H79.397L79.9492 123.809H85.3765V125.192H81.314L81.0347 127.636H81.1108C81.297 127.429 81.5488 127.262 81.8662 127.135C82.1836 127.004 82.5285 126.936 82.9009 126.932C83.4595 126.932 83.9652 127.063 84.418 127.325C84.875 127.583 85.2305 127.945 85.4844 128.411C85.7425 128.876 85.8716 129.399 85.8716 129.979C85.8716 130.584 85.7277 131.125 85.4399 131.604C85.1522 132.082 84.7523 132.456 84.2402 132.727C83.7324 132.994 83.1527 133.127 82.501 133.127ZM91.4512 129.071H87.3125V127.738H91.4512V129.071ZM96.2754 133.127C95.6279 133.127 95.0482 133.017 94.5361 132.797C94.0283 132.577 93.6263 132.268 93.3301 131.87C93.0381 131.468 92.8857 131.013 92.873 130.505H94.5425C94.5552 130.751 94.6398 130.967 94.7964 131.153C94.953 131.335 95.1582 131.477 95.4121 131.578C95.666 131.68 95.9517 131.73 96.269 131.73C96.6076 131.73 96.9102 131.673 97.1768 131.559C97.4434 131.445 97.6507 131.284 97.7988 131.077C97.9469 130.869 98.0189 130.632 98.0146 130.366C98.0146 130.086 97.9406 129.839 97.7925 129.623C97.6444 129.407 97.4243 129.24 97.1323 129.122C96.8446 128.999 96.5039 128.938 96.1104 128.938H95.2915V127.662H96.1104C96.432 127.662 96.7197 127.607 96.9736 127.497C97.2275 127.382 97.4222 127.224 97.5576 127.021C97.6973 126.817 97.7671 126.585 97.7671 126.322C97.7671 126.068 97.7057 125.844 97.583 125.649C97.4645 125.451 97.2931 125.296 97.0688 125.186C96.8488 125.076 96.5907 125.021 96.2944 125.021C96.0024 125.025 95.7337 125.078 95.4883 125.18C95.2428 125.281 95.0439 125.427 94.8916 125.618C94.7393 125.808 94.6589 126.03 94.6504 126.284H93.0571C93.0698 125.776 93.2201 125.326 93.5078 124.932C93.7998 124.534 94.1891 124.228 94.6758 124.012C95.1624 123.792 95.7041 123.682 96.3008 123.682C96.9102 123.682 97.4455 123.796 97.9067 124.024C98.3722 124.249 98.7319 124.556 98.9858 124.945C99.2397 125.33 99.3646 125.757 99.3604 126.227C99.3646 126.566 99.2969 126.872 99.1572 127.147C99.0218 127.423 98.825 127.651 98.5669 127.833C98.3088 128.015 98.0125 128.142 97.6782 128.214V128.284C98.1056 128.343 98.4717 128.47 98.7764 128.665C99.0853 128.855 99.318 129.105 99.4746 129.414C99.6312 129.718 99.7095 130.063 99.7095 130.448C99.7095 130.956 99.5614 131.413 99.2651 131.819C98.9731 132.226 98.5648 132.545 98.04 132.778C97.5195 133.011 96.9313 133.127 96.2754 133.127ZM104.419 123.682C105.067 123.686 105.659 123.832 106.197 124.12C106.734 124.407 107.168 124.881 107.498 125.542C107.832 126.202 108 127.063 108 128.125C108 129.166 107.851 130.063 107.555 130.816C107.259 131.565 106.832 132.139 106.273 132.537C105.719 132.93 105.067 133.127 104.318 133.127C103.734 133.127 103.211 133.015 102.75 132.791C102.293 132.562 101.923 132.251 101.639 131.857C101.36 131.464 101.186 131.013 101.119 130.505H102.744C102.803 130.747 102.904 130.956 103.048 131.134C103.192 131.312 103.37 131.449 103.582 131.546C103.797 131.644 104.043 131.692 104.318 131.692C104.758 131.692 105.132 131.568 105.441 131.318C105.755 131.068 105.992 130.708 106.152 130.239C106.313 129.769 106.396 129.206 106.4 128.55H106.305C106.152 128.813 105.956 129.039 105.714 129.229C105.477 129.416 105.207 129.56 104.902 129.661C104.601 129.763 104.284 129.813 103.95 129.813C103.404 129.813 102.909 129.687 102.464 129.433C102.024 129.174 101.675 128.819 101.417 128.366C101.159 127.913 101.03 127.403 101.03 126.836C101.03 126.236 101.169 125.696 101.449 125.218C101.732 124.735 102.13 124.359 102.642 124.088C103.158 123.813 103.751 123.677 104.419 123.682ZM104.419 125.015C104.085 125.015 103.78 125.095 103.505 125.256C103.235 125.412 103.021 125.628 102.864 125.903C102.708 126.174 102.632 126.47 102.636 126.792C102.636 127.118 102.712 127.416 102.864 127.687C103.017 127.954 103.226 128.165 103.493 128.322C103.759 128.478 104.062 128.557 104.4 128.557C104.73 128.557 105.033 128.474 105.308 128.309C105.587 128.144 105.807 127.926 105.968 127.655C106.129 127.384 106.209 127.092 106.209 126.779C106.209 126.466 106.131 126.174 105.975 125.903C105.818 125.632 105.604 125.417 105.333 125.256C105.063 125.095 104.758 125.015 104.419 125.015ZM109.377 131.8L112.621 128.677C112.972 128.322 113.245 128.03 113.439 127.801C113.634 127.573 113.782 127.348 113.884 127.128C113.99 126.904 114.042 126.667 114.042 126.417C114.042 126.142 113.973 125.899 113.833 125.688C113.693 125.476 113.503 125.313 113.262 125.199C113.025 125.08 112.756 125.021 112.456 125.021C112.147 125.021 111.876 125.084 111.643 125.211C111.41 125.334 111.228 125.512 111.097 125.745C110.97 125.973 110.907 126.242 110.907 126.551H109.339C109.335 125.979 109.466 125.478 109.732 125.046C109.999 124.611 110.371 124.274 110.85 124.037C111.328 123.8 111.872 123.682 112.481 123.682C113.095 123.682 113.638 123.796 114.112 124.024C114.59 124.253 114.961 124.568 115.223 124.97C115.49 125.372 115.623 125.829 115.623 126.341C115.619 126.697 115.549 127.04 115.414 127.37C115.282 127.7 115.05 128.066 114.715 128.468C114.385 128.87 113.92 129.354 113.319 129.921L111.681 131.546V131.616H115.763V133H109.383L109.377 131.8ZM120.549 133.127C119.876 133.127 119.275 133.015 118.746 132.791C118.217 132.566 117.802 132.259 117.502 131.87C117.206 131.477 117.058 131.032 117.058 130.537C117.058 130.156 117.144 129.801 117.318 129.471C117.491 129.141 117.728 128.868 118.029 128.652C118.329 128.436 118.661 128.301 119.025 128.246V128.188C118.708 128.121 118.427 127.99 118.181 127.795C117.94 127.6 117.75 127.359 117.61 127.071C117.474 126.784 117.407 126.475 117.407 126.145C117.407 125.679 117.542 125.26 117.813 124.888C118.084 124.511 118.456 124.217 118.93 124.005C119.408 123.79 119.948 123.682 120.549 123.682C121.141 123.682 121.677 123.79 122.155 124.005C122.633 124.217 123.007 124.511 123.278 124.888C123.553 125.26 123.691 125.679 123.691 126.145C123.691 126.475 123.621 126.784 123.481 127.071C123.342 127.359 123.149 127.6 122.904 127.795C122.658 127.99 122.379 128.121 122.066 128.188V128.246C122.426 128.301 122.756 128.436 123.056 128.652C123.361 128.868 123.6 129.141 123.773 129.471C123.951 129.801 124.04 130.156 124.04 130.537C124.04 131.032 123.89 131.477 123.589 131.87C123.293 132.259 122.878 132.566 122.345 132.791C121.812 133.015 121.213 133.127 120.549 133.127ZM120.549 131.819C120.904 131.819 121.215 131.76 121.482 131.642C121.753 131.519 121.962 131.352 122.11 131.14C122.258 130.924 122.333 130.675 122.333 130.391C122.333 130.108 122.256 129.852 122.104 129.623C121.952 129.39 121.738 129.208 121.463 129.077C121.192 128.946 120.887 128.88 120.549 128.88C120.206 128.88 119.899 128.946 119.628 129.077C119.362 129.204 119.15 129.384 118.994 129.617C118.841 129.845 118.765 130.103 118.765 130.391C118.765 130.67 118.837 130.918 118.981 131.134C119.129 131.345 119.336 131.513 119.603 131.635C119.874 131.758 120.189 131.819 120.549 131.819ZM120.549 127.655C120.841 127.655 121.103 127.598 121.336 127.484C121.569 127.365 121.751 127.205 121.882 127.001C122.013 126.798 122.079 126.566 122.079 126.303C122.079 126.045 122.013 125.814 121.882 125.611C121.755 125.408 121.575 125.252 121.342 125.142C121.11 125.032 120.845 124.977 120.549 124.977C120.244 124.977 119.978 125.032 119.749 125.142C119.521 125.252 119.341 125.408 119.209 125.611C119.083 125.814 119.019 126.045 119.019 126.303C119.019 126.566 119.085 126.798 119.216 127.001C119.347 127.205 119.527 127.365 119.755 127.484C119.988 127.598 120.253 127.655 120.549 127.655ZM128.75 133.127C128.103 133.127 127.523 133.017 127.011 132.797C126.503 132.577 126.101 132.268 125.805 131.87C125.513 131.468 125.36 131.013 125.348 130.505H127.017C127.03 130.751 127.114 130.967 127.271 131.153C127.428 131.335 127.633 131.477 127.887 131.578C128.141 131.68 128.426 131.73 128.744 131.73C129.082 131.73 129.385 131.673 129.651 131.559C129.918 131.445 130.125 131.284 130.273 131.077C130.422 130.869 130.493 130.632 130.489 130.366C130.489 130.086 130.415 129.839 130.267 129.623C130.119 129.407 129.899 129.24 129.607 129.122C129.319 128.999 128.979 128.938 128.585 128.938H127.766V127.662H128.585C128.907 127.662 129.194 127.607 129.448 127.497C129.702 127.382 129.897 127.224 130.032 127.021C130.172 126.817 130.242 126.585 130.242 126.322C130.242 126.068 130.18 125.844 130.058 125.649C129.939 125.451 129.768 125.296 129.543 125.186C129.323 125.076 129.065 125.021 128.769 125.021C128.477 125.025 128.208 125.078 127.963 125.18C127.717 125.281 127.519 125.427 127.366 125.618C127.214 125.808 127.133 126.03 127.125 126.284H125.532C125.544 125.776 125.695 125.326 125.982 124.932C126.274 124.534 126.664 124.228 127.15 124.012C127.637 123.792 128.179 123.682 128.775 123.682C129.385 123.682 129.92 123.796 130.381 124.024C130.847 124.249 131.207 124.556 131.46 124.945C131.714 125.33 131.839 125.757 131.835 126.227C131.839 126.566 131.771 126.872 131.632 127.147C131.496 127.423 131.3 127.651 131.042 127.833C130.783 128.015 130.487 128.142 130.153 128.214V128.284C130.58 128.343 130.946 128.47 131.251 128.665C131.56 128.855 131.793 129.105 131.949 129.414C132.106 129.718 132.184 130.063 132.184 130.448C132.184 130.956 132.036 131.413 131.74 131.819C131.448 132.226 131.039 132.545 130.515 132.778C129.994 133.011 129.406 133.127 128.75 133.127Z" fill="black"/>
<path d="M45.1006 161.127C44.4531 161.127 43.8734 161.017 43.3613 160.797C42.8535 160.577 42.4515 160.268 42.1553 159.87C41.8633 159.468 41.7109 159.013 41.6982 158.505H43.3677C43.3804 158.751 43.465 158.967 43.6216 159.153C43.7782 159.335 43.9834 159.477 44.2373 159.578C44.4912 159.68 44.7769 159.73 45.0942 159.73C45.4328 159.73 45.7354 159.673 46.002 159.559C46.2686 159.445 46.4759 159.284 46.624 159.077C46.7721 158.869 46.8441 158.632 46.8398 158.366C46.8398 158.086 46.7658 157.839 46.6177 157.623C46.4696 157.407 46.2495 157.24 45.9575 157.122C45.6698 156.999 45.3291 156.938 44.9355 156.938H44.1167V155.662H44.9355C45.2572 155.662 45.5449 155.607 45.7988 155.497C46.0527 155.382 46.2474 155.224 46.3828 155.021C46.5225 154.817 46.5923 154.585 46.5923 154.322C46.5923 154.068 46.5309 153.844 46.4082 153.649C46.2897 153.451 46.1183 153.296 45.894 153.186C45.674 153.076 45.4159 153.021 45.1196 153.021C44.8276 153.025 44.5589 153.078 44.3135 153.18C44.068 153.281 43.8691 153.427 43.7168 153.618C43.5645 153.808 43.484 154.03 43.4756 154.284H41.8823C41.895 153.776 42.0452 153.326 42.333 152.932C42.625 152.534 43.0143 152.228 43.501 152.012C43.9876 151.792 44.5293 151.682 45.126 151.682C45.7354 151.682 46.2707 151.796 46.7319 152.024C47.1974 152.249 47.5571 152.556 47.811 152.945C48.0649 153.33 48.1898 153.757 48.1855 154.227C48.1898 154.566 48.1221 154.872 47.9824 155.147C47.847 155.423 47.6502 155.651 47.3921 155.833C47.134 156.015 46.8377 156.142 46.5034 156.214V156.284C46.9308 156.343 47.2969 156.47 47.6016 156.665C47.9105 156.855 48.1432 157.105 48.2998 157.414C48.4564 157.718 48.5347 158.063 48.5347 158.448C48.5347 158.956 48.3866 159.413 48.0903 159.819C47.7983 160.226 47.39 160.545 46.8652 160.778C46.3447 161.011 45.7565 161.127 45.1006 161.127ZM53.3145 161.127C52.6416 161.127 52.0407 161.015 51.5117 160.791C50.9827 160.566 50.568 160.259 50.2676 159.87C49.9714 159.477 49.8232 159.032 49.8232 158.537C49.8232 158.156 49.91 157.801 50.0835 157.471C50.257 157.141 50.494 156.868 50.7944 156.652C51.0949 156.436 51.4271 156.301 51.791 156.246V156.188C51.4736 156.121 51.1922 155.99 50.9468 155.795C50.7056 155.6 50.5151 155.359 50.3755 155.071C50.2401 154.784 50.1724 154.475 50.1724 154.145C50.1724 153.679 50.3078 153.26 50.5786 152.888C50.8494 152.511 51.2218 152.217 51.6958 152.005C52.174 151.79 52.7135 151.682 53.3145 151.682C53.9069 151.682 54.4422 151.79 54.9204 152.005C55.3986 152.217 55.7731 152.511 56.0439 152.888C56.319 153.26 56.4565 153.679 56.4565 154.145C56.4565 154.475 56.3867 154.784 56.2471 155.071C56.1074 155.359 55.9149 155.6 55.6694 155.795C55.424 155.99 55.1447 156.121 54.8315 156.188V156.246C55.1912 156.301 55.5213 156.436 55.8218 156.652C56.1265 156.868 56.3656 157.141 56.5391 157.471C56.7168 157.801 56.8057 158.156 56.8057 158.537C56.8057 159.032 56.6554 159.477 56.355 159.87C56.0588 160.259 55.644 160.566 55.1108 160.791C54.5776 161.015 53.9788 161.127 53.3145 161.127ZM53.3145 159.819C53.6699 159.819 53.981 159.76 54.2476 159.642C54.5184 159.519 54.7279 159.352 54.876 159.14C55.0241 158.924 55.0981 158.675 55.0981 158.391C55.0981 158.108 55.022 157.852 54.8696 157.623C54.7173 157.39 54.5036 157.208 54.2285 157.077C53.9577 156.946 53.653 156.88 53.3145 156.88C52.9717 156.88 52.6649 156.946 52.394 157.077C52.1274 157.204 51.9159 157.384 51.7593 157.617C51.6069 157.845 51.5308 158.103 51.5308 158.391C51.5308 158.67 51.6027 158.918 51.7466 159.134C51.8947 159.345 52.1021 159.513 52.3687 159.635C52.6395 159.758 52.9548 159.819 53.3145 159.819ZM53.3145 155.655C53.6064 155.655 53.8688 155.598 54.1016 155.484C54.3343 155.365 54.5163 155.205 54.6475 155.001C54.7786 154.798 54.8442 154.566 54.8442 154.303C54.8442 154.045 54.7786 153.814 54.6475 153.611C54.5205 153.408 54.3407 153.252 54.1079 153.142C53.8752 153.032 53.6107 152.977 53.3145 152.977C53.0098 152.977 52.7432 153.032 52.5146 153.142C52.2861 153.252 52.1063 153.408 51.9751 153.611C51.8481 153.814 51.7847 154.045 51.7847 154.303C51.7847 154.566 51.8503 154.798 51.9814 155.001C52.1126 155.205 52.2925 155.365 52.521 155.484C52.7537 155.598 53.0182 155.655 53.3145 155.655ZM58.0054 157.972L61.979 151.809H63.0708V153.688H62.3916L59.7002 157.858V157.934H65.248V159.286H58.0054V157.972ZM62.4678 158.893L62.4868 158.296V151.809H64.0483V161H62.4678V158.893ZM70.7705 157.071H66.6318V155.738H70.7705V157.071ZM75.6836 161.127C75.0107 161.127 74.4098 161.015 73.8809 160.791C73.3519 160.566 72.9372 160.259 72.6367 159.87C72.3405 159.477 72.1924 159.032 72.1924 158.537C72.1924 158.156 72.2791 157.801 72.4526 157.471C72.6261 157.141 72.8631 156.868 73.1636 156.652C73.464 156.436 73.7962 156.301 74.1602 156.246V156.188C73.8428 156.121 73.5614 155.99 73.3159 155.795C73.0747 155.6 72.8843 155.359 72.7446 155.071C72.6092 154.784 72.5415 154.475 72.5415 154.145C72.5415 153.679 72.6769 153.26 72.9478 152.888C73.2186 152.511 73.591 152.217 74.0649 152.005C74.5431 151.79 75.0827 151.682 75.6836 151.682C76.276 151.682 76.8114 151.79 77.2896 152.005C77.7677 152.217 78.1423 152.511 78.4131 152.888C78.6882 153.26 78.8257 153.679 78.8257 154.145C78.8257 154.475 78.7559 154.784 78.6162 155.071C78.4766 155.359 78.284 155.6 78.0386 155.795C77.7931 155.99 77.5138 156.121 77.2007 156.188V156.246C77.5604 156.301 77.8905 156.436 78.1909 156.652C78.4956 156.868 78.7347 157.141 78.9082 157.471C79.0859 157.801 79.1748 158.156 79.1748 158.537C79.1748 159.032 79.0246 159.477 78.7241 159.87C78.4279 160.259 78.0132 160.566 77.48 160.791C76.9468 161.015 76.348 161.127 75.6836 161.127ZM75.6836 159.819C76.0391 159.819 76.3501 159.76 76.6167 159.642C76.8875 159.519 77.097 159.352 77.2451 159.14C77.3932 158.924 77.4673 158.675 77.4673 158.391C77.4673 158.108 77.3911 157.852 77.2388 157.623C77.0864 157.39 76.8727 157.208 76.5977 157.077C76.3268 156.946 76.0221 156.88 75.6836 156.88C75.3408 156.88 75.034 156.946 74.7632 157.077C74.4966 157.204 74.285 157.384 74.1284 157.617C73.9761 157.845 73.8999 158.103 73.8999 158.391C73.8999 158.67 73.9718 158.918 74.1157 159.134C74.2638 159.345 74.4712 159.513 74.7378 159.635C75.0086 159.758 75.3239 159.819 75.6836 159.819ZM75.6836 155.655C75.9756 155.655 76.238 155.598 76.4707 155.484C76.7035 155.365 76.8854 155.205 77.0166 155.001C77.1478 154.798 77.2134 154.566 77.2134 154.303C77.2134 154.045 77.1478 153.814 77.0166 153.611C76.8896 153.408 76.7098 153.252 76.4771 153.142C76.2443 153.032 75.9798 152.977 75.6836 152.977C75.3789 152.977 75.1123 153.032 74.8838 153.142C74.6553 153.252 74.4754 153.408 74.3442 153.611C74.2173 153.814 74.1538 154.045 74.1538 154.303C74.1538 154.566 74.2194 154.798 74.3506 155.001C74.4818 155.205 74.6616 155.365 74.8901 155.484C75.1229 155.598 75.3874 155.655 75.6836 155.655ZM80.3745 157.972L84.3481 151.809H85.4399V153.688H84.7607L82.0693 157.858V157.934H87.6172V159.286H80.3745V157.972ZM84.8369 158.893L84.856 158.296V151.809H86.4175V161H84.8369V158.893ZM93.1396 157.071H89.001V155.738H93.1396V157.071ZM94.5425 157.972L98.5161 151.809H99.6079V153.688H98.9287L96.2373 157.858V157.934H101.785V159.286H94.5425V157.972ZM99.0049 158.893L99.0239 158.296V151.809H100.585V161H99.0049V158.893ZM106.457 161.127C105.784 161.127 105.183 161.015 104.654 160.791C104.125 160.566 103.711 160.259 103.41 159.87C103.114 159.477 102.966 159.032 102.966 158.537C102.966 158.156 103.053 157.801 103.226 157.471C103.4 157.141 103.637 156.868 103.937 156.652C104.237 156.436 104.57 156.301 104.934 156.246V156.188C104.616 156.121 104.335 155.99 104.089 155.795C103.848 155.6 103.658 155.359 103.518 155.071C103.383 154.784 103.315 154.475 103.315 154.145C103.315 153.679 103.45 153.26 103.721 152.888C103.992 152.511 104.364 152.217 104.838 152.005C105.317 151.79 105.856 151.682 106.457 151.682C107.049 151.682 107.585 151.79 108.063 152.005C108.541 152.217 108.916 152.511 109.187 152.888C109.462 153.26 109.599 153.679 109.599 154.145C109.599 154.475 109.529 154.784 109.39 155.071C109.25 155.359 109.057 155.6 108.812 155.795C108.567 155.99 108.287 156.121 107.974 156.188V156.246C108.334 156.301 108.664 156.436 108.964 156.652C109.269 156.868 109.508 157.141 109.682 157.471C109.859 157.801 109.948 158.156 109.948 158.537C109.948 159.032 109.798 159.477 109.498 159.87C109.201 160.259 108.787 160.566 108.253 160.791C107.72 161.015 107.121 161.127 106.457 161.127ZM106.457 159.819C106.812 159.819 107.124 159.76 107.39 159.642C107.661 159.519 107.87 159.352 108.019 159.14C108.167 158.924 108.241 158.675 108.241 158.391C108.241 158.108 108.165 157.852 108.012 157.623C107.86 157.39 107.646 157.208 107.371 157.077C107.1 156.946 106.796 156.88 106.457 156.88C106.114 156.88 105.807 156.946 105.537 157.077C105.27 157.204 105.058 157.384 104.902 157.617C104.75 157.845 104.673 158.103 104.673 158.391C104.673 158.67 104.745 158.918 104.889 159.134C105.037 159.345 105.245 159.513 105.511 159.635C105.782 159.758 106.097 159.819 106.457 159.819ZM106.457 155.655C106.749 155.655 107.011 155.598 107.244 155.484C107.477 155.365 107.659 155.205 107.79 155.001C107.921 154.798 107.987 154.566 107.987 154.303C107.987 154.045 107.921 153.814 107.79 153.611C107.663 153.408 107.483 153.252 107.25 153.142C107.018 153.032 106.753 152.977 106.457 152.977C106.152 152.977 105.886 153.032 105.657 153.142C105.429 153.252 105.249 153.408 105.118 153.611C104.991 153.814 104.927 154.045 104.927 154.303C104.927 154.566 104.993 154.798 105.124 155.001C105.255 155.205 105.435 155.365 105.664 155.484C105.896 155.598 106.161 155.655 106.457 155.655ZM114.582 161.127C113.977 161.127 113.431 161.015 112.944 160.791C112.458 160.562 112.073 160.251 111.789 159.857C111.51 159.46 111.362 159.009 111.345 158.505H112.951C112.968 158.751 113.05 158.971 113.198 159.166C113.351 159.36 113.547 159.515 113.789 159.629C114.03 159.739 114.294 159.792 114.582 159.788C114.921 159.788 115.223 159.711 115.49 159.559C115.756 159.407 115.966 159.197 116.118 158.931C116.271 158.664 116.347 158.361 116.347 158.023C116.347 157.68 116.268 157.373 116.112 157.103C115.959 156.827 115.746 156.614 115.471 156.461C115.196 156.305 114.882 156.227 114.531 156.227C114.167 156.222 113.858 156.286 113.604 156.417C113.351 156.544 113.152 156.743 113.008 157.014H111.478L112.03 151.809H117.458V153.192H113.395L113.116 155.636H113.192C113.378 155.429 113.63 155.262 113.947 155.135C114.265 155.004 114.61 154.936 114.982 154.932C115.541 154.932 116.046 155.063 116.499 155.325C116.956 155.583 117.312 155.945 117.565 156.411C117.824 156.876 117.953 157.399 117.953 157.979C117.953 158.584 117.809 159.125 117.521 159.604C117.233 160.082 116.833 160.456 116.321 160.727C115.813 160.994 115.234 161.127 114.582 161.127ZM122.79 161.127C122.138 161.123 121.543 160.977 121.006 160.689C120.468 160.397 120.033 159.921 119.698 159.261C119.364 158.596 119.199 157.731 119.203 156.665C119.203 155.624 119.353 154.729 119.654 153.979C119.958 153.23 120.386 152.661 120.936 152.272C121.486 151.878 122.136 151.682 122.885 151.682C123.46 151.682 123.979 151.794 124.44 152.018C124.905 152.238 125.278 152.547 125.557 152.945C125.841 153.343 126.016 153.789 126.084 154.284H124.453C124.393 154.043 124.294 153.836 124.154 153.662C124.015 153.484 123.837 153.349 123.621 153.256C123.405 153.163 123.16 153.116 122.885 153.116C122.44 153.116 122.064 153.241 121.755 153.491C121.446 153.736 121.211 154.094 121.05 154.563C120.889 155.029 120.809 155.585 120.809 156.233H120.898C121.05 155.966 121.247 155.738 121.488 155.547C121.729 155.353 122 155.207 122.301 155.109C122.601 155.012 122.919 154.963 123.253 154.963C123.799 154.963 124.294 155.092 124.738 155.351C125.183 155.609 125.532 155.966 125.786 156.423C126.044 156.876 126.173 157.388 126.173 157.959C126.173 158.565 126.031 159.108 125.748 159.591C125.468 160.069 125.07 160.446 124.554 160.721C124.042 160.996 123.454 161.131 122.79 161.127ZM122.783 159.788C123.118 159.788 123.42 159.709 123.691 159.553C123.966 159.392 124.182 159.176 124.338 158.905C124.495 158.63 124.573 158.328 124.573 157.998C124.573 157.672 124.497 157.373 124.345 157.103C124.192 156.832 123.981 156.618 123.71 156.461C123.439 156.305 123.134 156.227 122.796 156.227C122.462 156.227 122.157 156.307 121.882 156.468C121.611 156.624 121.393 156.84 121.228 157.115C121.067 157.39 120.985 157.687 120.98 158.004C120.98 158.326 121.061 158.622 121.222 158.893C121.382 159.163 121.598 159.381 121.869 159.546C122.14 159.707 122.445 159.788 122.783 159.788ZM131.016 161.127C130.364 161.123 129.77 160.977 129.232 160.689C128.695 160.397 128.259 159.921 127.925 159.261C127.59 158.596 127.425 157.731 127.43 156.665C127.43 155.624 127.58 154.729 127.88 153.979C128.185 153.23 128.612 152.661 129.163 152.272C129.713 151.878 130.362 151.682 131.111 151.682C131.687 151.682 132.205 151.794 132.667 152.018C133.132 152.238 133.504 152.547 133.784 152.945C134.067 153.343 134.243 153.789 134.311 154.284H132.679C132.62 154.043 132.521 153.836 132.381 153.662C132.241 153.484 132.063 153.349 131.848 153.256C131.632 153.163 131.386 153.116 131.111 153.116C130.667 153.116 130.29 153.241 129.981 153.491C129.673 153.736 129.438 154.094 129.277 154.563C129.116 155.029 129.036 155.585 129.036 156.233H129.125C129.277 155.966 129.474 155.738 129.715 155.547C129.956 155.353 130.227 155.207 130.527 155.109C130.828 155.012 131.145 154.963 131.479 154.963C132.025 154.963 132.521 155.092 132.965 155.351C133.409 155.609 133.758 155.966 134.012 156.423C134.27 156.876 134.399 157.388 134.399 157.959C134.399 158.565 134.258 159.108 133.974 159.591C133.695 160.069 133.297 160.446 132.781 160.721C132.269 160.996 131.681 161.131 131.016 161.127ZM131.01 159.788C131.344 159.788 131.647 159.709 131.917 159.553C132.193 159.392 132.408 159.176 132.565 158.905C132.722 158.63 132.8 158.328 132.8 157.998C132.8 157.672 132.724 157.373 132.571 157.103C132.419 156.832 132.207 156.618 131.937 156.461C131.666 156.305 131.361 156.227 131.022 156.227C130.688 156.227 130.383 156.307 130.108 156.468C129.838 156.624 129.62 156.84 129.455 157.115C129.294 157.39 129.211 157.687 129.207 158.004C129.207 158.326 129.287 158.622 129.448 158.893C129.609 159.163 129.825 159.381 130.096 159.546C130.367 159.707 130.671 159.788 131.01 159.788Z" fill="black"/>
<path d="M45.0308 180.682C45.6782 180.686 46.2707 180.832 46.8081 181.12C47.3455 181.407 47.7793 181.881 48.1094 182.542C48.4437 183.202 48.6108 184.063 48.6108 185.125C48.6108 186.166 48.4627 187.063 48.1665 187.816C47.8703 188.565 47.4429 189.139 46.8843 189.537C46.3299 189.93 45.6782 190.127 44.9292 190.127C44.3452 190.127 43.8226 190.015 43.3613 189.791C42.9043 189.562 42.534 189.251 42.2505 188.857C41.9712 188.464 41.7977 188.013 41.73 187.505H43.355C43.4142 187.747 43.5158 187.956 43.6597 188.134C43.8035 188.312 43.9813 188.449 44.1929 188.546C44.4087 188.644 44.6541 188.692 44.9292 188.692C45.3693 188.692 45.7438 188.568 46.0527 188.318C46.3659 188.068 46.6029 187.708 46.7637 187.239C46.9245 186.769 47.007 186.206 47.0112 185.55H46.916C46.7637 185.813 46.5669 186.039 46.3257 186.229C46.0887 186.416 45.8179 186.56 45.5132 186.661C45.2127 186.763 44.8953 186.813 44.561 186.813C44.0151 186.813 43.52 186.687 43.0757 186.433C42.6356 186.174 42.2865 185.819 42.0283 185.366C41.7702 184.913 41.6411 184.403 41.6411 183.836C41.6411 183.236 41.7808 182.696 42.0601 182.218C42.3436 181.735 42.7414 181.359 43.2534 181.088C43.7697 180.813 44.3621 180.677 45.0308 180.682ZM45.0308 182.015C44.6965 182.015 44.3918 182.095 44.1167 182.256C43.8459 182.412 43.6322 182.628 43.4756 182.903C43.319 183.174 43.2428 183.47 43.2471 183.792C43.2471 184.118 43.3232 184.416 43.4756 184.687C43.6279 184.954 43.8374 185.165 44.104 185.322C44.3706 185.478 44.6732 185.557 45.0117 185.557C45.3418 185.557 45.6444 185.474 45.9194 185.309C46.1987 185.144 46.4188 184.926 46.5796 184.655C46.7404 184.384 46.8208 184.092 46.8208 183.779C46.8208 183.466 46.7425 183.174 46.5859 182.903C46.4294 182.632 46.2157 182.417 45.9448 182.256C45.674 182.095 45.3693 182.015 45.0308 182.015ZM53.3779 190.127C52.6416 190.127 52.009 189.943 51.48 189.575C50.9552 189.202 50.5511 188.665 50.2676 187.962C49.9883 187.256 49.8486 186.403 49.8486 185.404C49.8486 184.414 49.9883 183.566 50.2676 182.859C50.5511 182.148 50.9552 181.608 51.48 181.24C52.009 180.868 52.6416 180.682 53.3779 180.682C54.1058 180.682 54.7363 180.868 55.2695 181.24C55.8027 181.608 56.209 182.148 56.4883 182.859C56.7676 183.566 56.9072 184.414 56.9072 185.404C56.9072 186.403 56.7676 187.256 56.4883 187.962C56.2132 188.669 55.8091 189.207 55.2759 189.575C54.7469 189.943 54.1143 190.127 53.3779 190.127ZM53.3779 188.737C53.763 188.737 54.0952 188.612 54.3745 188.362C54.658 188.108 54.8717 187.734 55.0156 187.239C55.1637 186.739 55.2378 186.128 55.2378 185.404C55.2378 184.685 55.1616 184.076 55.0093 183.576C54.8612 183.073 54.6475 182.694 54.3682 182.44C54.0931 182.182 53.763 182.053 53.3779 182.053C52.9928 182.053 52.6606 182.182 52.3813 182.44C52.1063 182.694 51.8926 183.073 51.7402 183.576C51.5879 184.076 51.5117 184.685 51.5117 185.404C51.5117 186.128 51.5879 186.739 51.7402 187.239C51.8926 187.734 52.1063 188.108 52.3813 188.362C52.6564 188.612 52.9886 188.737 53.3779 188.737ZM61.6299 190.127C60.957 190.127 60.3561 190.015 59.8271 189.791C59.2982 189.566 58.8835 189.259 58.583 188.87C58.2868 188.477 58.1387 188.032 58.1387 187.537C58.1387 187.156 58.2254 186.801 58.3989 186.471C58.5724 186.141 58.8094 185.868 59.1099 185.652C59.4103 185.436 59.7425 185.301 60.1064 185.246V185.188C59.7891 185.121 59.5076 184.99 59.2622 184.795C59.021 184.6 58.8306 184.359 58.6909 184.071C58.5555 183.784 58.4878 183.475 58.4878 183.145C58.4878 182.679 58.6232 182.26 58.894 181.888C59.1649 181.511 59.5373 181.217 60.0112 181.005C60.4894 180.79 61.029 180.682 61.6299 180.682C62.2223 180.682 62.7576 180.79 63.2358 181.005C63.714 181.217 64.0885 181.511 64.3594 181.888C64.6344 182.26 64.772 182.679 64.772 183.145C64.772 183.475 64.7021 183.784 64.5625 184.071C64.4229 184.359 64.2303 184.6 63.9849 184.795C63.7394 184.99 63.4601 185.121 63.147 185.188V185.246C63.5067 185.301 63.8368 185.436 64.1372 185.652C64.4419 185.868 64.681 186.141 64.8545 186.471C65.0322 186.801 65.1211 187.156 65.1211 187.537C65.1211 188.032 64.9709 188.477 64.6704 188.87C64.3742 189.259 63.9595 189.566 63.4263 189.791C62.8931 190.015 62.2943 190.127 61.6299 190.127ZM61.6299 188.819C61.9854 188.819 62.2964 188.76 62.563 188.642C62.8338 188.519 63.0433 188.352 63.1914 188.14C63.3395 187.924 63.4136 187.675 63.4136 187.391C63.4136 187.108 63.3374 186.852 63.1851 186.623C63.0327 186.39 62.819 186.208 62.5439 186.077C62.2731 185.946 61.9684 185.88 61.6299 185.88C61.2871 185.88 60.9803 185.946 60.7095 186.077C60.4429 186.204 60.2313 186.384 60.0747 186.617C59.9224 186.845 59.8462 187.103 59.8462 187.391C59.8462 187.67 59.9181 187.918 60.062 188.134C60.2101 188.345 60.4175 188.513 60.6841 188.635C60.9549 188.758 61.2702 188.819 61.6299 188.819ZM61.6299 184.655C61.9219 184.655 62.1842 184.598 62.417 184.484C62.6497 184.365 62.8317 184.205 62.9629 184.001C63.0941 183.798 63.1597 183.566 63.1597 183.303C63.1597 183.045 63.0941 182.814 62.9629 182.611C62.8359 182.408 62.6561 182.252 62.4233 182.142C62.1906 182.032 61.9261 181.977 61.6299 181.977C61.3252 181.977 61.0586 182.032 60.8301 182.142C60.6016 182.252 60.4217 182.408 60.2905 182.611C60.1636 182.814 60.1001 183.045 60.1001 183.303C60.1001 183.566 60.1657 183.798 60.2969 184.001C60.4281 184.205 60.6079 184.365 60.8364 184.484C61.0692 184.598 61.3337 184.655 61.6299 184.655ZM70.6816 186.071H66.543V184.738H70.6816V186.071ZM75.5249 180.682C76.1724 180.686 76.7648 180.832 77.3022 181.12C77.8397 181.407 78.2734 181.881 78.6035 182.542C78.9378 183.202 79.105 184.063 79.105 185.125C79.105 186.166 78.9569 187.063 78.6606 187.816C78.3644 188.565 77.937 189.139 77.3784 189.537C76.8241 189.93 76.1724 190.127 75.4233 190.127C74.8394 190.127 74.3167 190.015 73.8555 189.791C73.3984 189.562 73.0282 189.251 72.7446 188.857C72.4653 188.464 72.2918 188.013 72.2241 187.505H73.8491C73.9084 187.747 74.0099 187.956 74.1538 188.134C74.2977 188.312 74.4754 188.449 74.687 188.546C74.9028 188.644 75.1483 188.692 75.4233 188.692C75.8634 188.692 76.238 188.568 76.5469 188.318C76.86 188.068 77.097 187.708 77.2578 187.239C77.4186 186.769 77.5011 186.206 77.5054 185.55H77.4102C77.2578 185.813 77.061 186.039 76.8198 186.229C76.5828 186.416 76.312 186.56 76.0073 186.661C75.7069 186.763 75.3895 186.813 75.0552 186.813C74.5093 186.813 74.0142 186.687 73.5698 186.433C73.1297 186.174 72.7806 185.819 72.5225 185.366C72.2643 184.913 72.1353 184.403 72.1353 183.836C72.1353 183.236 72.2749 182.696 72.5542 182.218C72.8377 181.735 73.2355 181.359 73.7476 181.088C74.2638 180.813 74.8563 180.677 75.5249 180.682ZM75.5249 182.015C75.1906 182.015 74.8859 182.095 74.6108 182.256C74.34 182.412 74.1263 182.628 73.9697 182.903C73.8132 183.174 73.737 183.47 73.7412 183.792C73.7412 184.118 73.8174 184.416 73.9697 184.687C74.1221 184.954 74.3315 185.165 74.5981 185.322C74.8647 185.478 75.1673 185.557 75.5059 185.557C75.8359 185.557 76.1385 185.474 76.4136 185.309C76.6929 185.144 76.9129 184.926 77.0737 184.655C77.2345 184.384 77.3149 184.092 77.3149 183.779C77.3149 183.466 77.2367 183.174 77.0801 182.903C76.9235 182.632 76.7098 182.417 76.439 182.256C76.1681 182.095 75.8634 182.015 75.5249 182.015ZM83.7515 180.682C84.3989 180.686 84.9914 180.832 85.5288 181.12C86.0662 181.407 86.5 181.881 86.8301 182.542C87.1644 183.202 87.3315 184.063 87.3315 185.125C87.3315 186.166 87.1834 187.063 86.8872 187.816C86.591 188.565 86.1636 189.139 85.605 189.537C85.0506 189.93 84.3989 190.127 83.6499 190.127C83.0659 190.127 82.5433 190.015 82.082 189.791C81.625 189.562 81.2547 189.251 80.9712 188.857C80.6919 188.464 80.5184 188.013 80.4507 187.505H82.0757C82.1349 187.747 82.2365 187.956 82.3804 188.134C82.5243 188.312 82.702 188.449 82.9136 188.546C83.1294 188.644 83.3748 188.692 83.6499 188.692C84.09 188.692 84.4645 188.568 84.7734 188.318C85.0866 188.068 85.3236 187.708 85.4844 187.239C85.6452 186.769 85.7277 186.206 85.7319 185.55H85.6367C85.4844 185.813 85.2876 186.039 85.0464 186.229C84.8094 186.416 84.5386 186.56 84.2339 186.661C83.9334 186.763 83.616 186.813 83.2817 186.813C82.7358 186.813 82.2407 186.687 81.7964 186.433C81.3563 186.174 81.0072 185.819 80.749 185.366C80.4909 184.913 80.3618 184.403 80.3618 183.836C80.3618 183.236 80.5015 182.696 80.7808 182.218C81.0643 181.735 81.4621 181.359 81.9741 181.088C82.4904 180.813 83.0828 180.677 83.7515 180.682ZM83.7515 182.015C83.4172 182.015 83.1125 182.095 82.8374 182.256C82.5666 182.412 82.3529 182.628 82.1963 182.903C82.0397 183.174 81.9635 183.47 81.9678 183.792C81.9678 184.118 82.0439 184.416 82.1963 184.687C82.3486 184.954 82.5581 185.165 82.8247 185.322C83.0913 185.478 83.3939 185.557 83.7324 185.557C84.0625 185.557 84.3651 185.474 84.6401 185.309C84.9194 185.144 85.1395 184.926 85.3003 184.655C85.4611 184.384 85.5415 184.092 85.5415 183.779C85.5415 183.466 85.4632 183.174 85.3066 182.903C85.1501 182.632 84.9364 182.417 84.6655 182.256C84.3947 182.095 84.09 182.015 83.7515 182.015ZM92.8984 186.071H88.7598V184.738H92.8984V186.071ZM94.3013 186.972L98.2749 180.809H99.3667V182.688H98.6875L95.9961 186.858V186.934H101.544V188.286H94.3013V186.972ZM98.7637 187.893L98.7827 187.296V180.809H100.344V190H98.7637V187.893ZM106.216 190.127C105.568 190.127 104.989 190.017 104.477 189.797C103.969 189.577 103.567 189.268 103.271 188.87C102.979 188.468 102.826 188.013 102.813 187.505H104.483C104.496 187.751 104.58 187.967 104.737 188.153C104.893 188.335 105.099 188.477 105.353 188.578C105.606 188.68 105.892 188.73 106.209 188.73C106.548 188.73 106.851 188.673 107.117 188.559C107.384 188.445 107.591 188.284 107.739 188.077C107.887 187.869 107.959 187.632 107.955 187.366C107.955 187.086 107.881 186.839 107.733 186.623C107.585 186.407 107.365 186.24 107.073 186.122C106.785 185.999 106.444 185.938 106.051 185.938H105.232V184.662H106.051C106.372 184.662 106.66 184.607 106.914 184.497C107.168 184.382 107.363 184.224 107.498 184.021C107.638 183.817 107.708 183.585 107.708 183.322C107.708 183.068 107.646 182.844 107.523 182.649C107.405 182.451 107.234 182.296 107.009 182.186C106.789 182.076 106.531 182.021 106.235 182.021C105.943 182.025 105.674 182.078 105.429 182.18C105.183 182.281 104.984 182.427 104.832 182.618C104.68 182.808 104.599 183.03 104.591 183.284H102.998C103.01 182.776 103.16 182.326 103.448 181.932C103.74 181.534 104.13 181.228 104.616 181.012C105.103 180.792 105.645 180.682 106.241 180.682C106.851 180.682 107.386 180.796 107.847 181.024C108.313 181.249 108.672 181.556 108.926 181.945C109.18 182.33 109.305 182.757 109.301 183.227C109.305 183.566 109.237 183.872 109.098 184.147C108.962 184.423 108.765 184.651 108.507 184.833C108.249 185.015 107.953 185.142 107.619 185.214V185.284C108.046 185.343 108.412 185.47 108.717 185.665C109.026 185.855 109.258 186.105 109.415 186.414C109.572 186.718 109.65 187.063 109.65 187.448C109.65 187.956 109.502 188.413 109.206 188.819C108.914 189.226 108.505 189.545 107.98 189.778C107.46 190.011 106.872 190.127 106.216 190.127ZM111.091 188.8L114.334 185.677C114.686 185.322 114.959 185.03 115.153 184.801C115.348 184.573 115.496 184.348 115.598 184.128C115.703 183.904 115.756 183.667 115.756 183.417C115.756 183.142 115.687 182.899 115.547 182.688C115.407 182.476 115.217 182.313 114.976 182.199C114.739 182.08 114.47 182.021 114.169 182.021C113.861 182.021 113.59 182.084 113.357 182.211C113.124 182.334 112.942 182.512 112.811 182.745C112.684 182.973 112.621 183.242 112.621 183.551H111.053C111.049 182.979 111.18 182.478 111.446 182.046C111.713 181.611 112.085 181.274 112.563 181.037C113.042 180.8 113.585 180.682 114.195 180.682C114.808 180.682 115.352 180.796 115.826 181.024C116.304 181.253 116.675 181.568 116.937 181.97C117.204 182.372 117.337 182.829 117.337 183.341C117.333 183.697 117.263 184.04 117.127 184.37C116.996 184.7 116.764 185.066 116.429 185.468C116.099 185.87 115.634 186.354 115.033 186.921L113.395 188.546V188.616H117.477V190H111.097L111.091 188.8ZM123.253 182.25V182.192H118.625V180.809H124.967V182.224L120.98 190H119.267L123.253 182.25ZM126.3 188.8L129.543 185.677C129.895 185.322 130.168 185.03 130.362 184.801C130.557 184.573 130.705 184.348 130.807 184.128C130.912 183.904 130.965 183.667 130.965 183.417C130.965 183.142 130.896 182.899 130.756 182.688C130.616 182.476 130.426 182.313 130.185 182.199C129.948 182.08 129.679 182.021 129.378 182.021C129.069 182.021 128.799 182.084 128.566 182.211C128.333 182.334 128.151 182.512 128.02 182.745C127.893 182.973 127.83 183.242 127.83 183.551H126.262C126.257 182.979 126.389 182.478 126.655 182.046C126.922 181.611 127.294 181.274 127.772 181.037C128.251 180.8 128.794 180.682 129.404 180.682C130.017 180.682 130.561 180.796 131.035 181.024C131.513 181.253 131.884 181.568 132.146 181.97C132.413 182.372 132.546 182.829 132.546 183.341C132.542 183.697 132.472 184.04 132.336 184.37C132.205 184.7 131.972 185.066 131.638 185.468C131.308 185.87 130.843 186.354 130.242 186.921L128.604 188.546V188.616H132.686V190H126.306L126.3 188.8Z" fill="black"/>
<rect x="190.5" y="0.5" width="162" height="28" fill="#F8F8F8" stroke="#DBDBDB"/>
<rect x="29.5" y="0.5" width="161" height="28" fill="#F3F3F3" stroke="#DBDBDB"/>
<rect width="30" height="29" fill="white"/>
<path d="M27 25.1803V3.92313C27 3.20092 26.1337 2.83168 25.6127 3.33183L3.46976 24.589C2.93713 25.1004 3.29907 26 4.03741 26H26.1803C26.633 26 27 25.633 27 25.1803Z" fill="#DFDFDF"/>
<path d="M105.254 20L108.491 10.8086H110.529L113.766 20H112.001L109.545 12.6875H109.469L107.012 20H105.254ZM111.925 16.3945V17.7212H107.082V16.3945H111.925Z" fill="#3A714A"/>
<path d="M257.857 10.8086H261.367C262.015 10.8086 262.561 10.9102 263.005 11.1133C263.453 11.3122 263.79 11.5936 264.014 11.9575C264.238 12.3172 264.348 12.7298 264.344 13.1953C264.344 13.555 264.274 13.8682 264.135 14.1348C263.999 14.4014 263.811 14.6193 263.57 14.7886C263.329 14.9536 263.051 15.0742 262.738 15.1504V15.2393C263.077 15.2562 263.396 15.3577 263.697 15.5439C263.997 15.7301 264.241 15.9925 264.427 16.3311C264.613 16.6654 264.706 17.0547 264.706 17.499C264.706 17.9857 264.588 18.4173 264.351 18.7939C264.118 19.1663 263.767 19.4604 263.297 19.6763C262.827 19.8921 262.252 20 261.57 20H257.857V10.8086ZM261.31 18.6162C261.699 18.6162 262.021 18.5633 262.275 18.4575C262.533 18.3517 262.723 18.2078 262.846 18.0259C262.969 17.8397 263.028 17.6196 263.024 17.3657C263.028 17.0907 262.963 16.8431 262.827 16.623C262.692 16.403 262.497 16.2316 262.243 16.1089C261.989 15.9819 261.695 15.9163 261.361 15.9121H259.507V18.6162H261.31ZM261.17 14.7188C261.458 14.7188 261.718 14.6637 261.951 14.5537C262.184 14.4437 262.366 14.2913 262.497 14.0967C262.628 13.8978 262.694 13.6672 262.694 13.4048C262.694 13.1636 262.637 12.9499 262.522 12.7637C262.412 12.5775 262.245 12.4336 262.021 12.332C261.797 12.2305 261.526 12.1797 261.208 12.1797H259.507V14.7188H261.17Z" fill="#5E5E5E"/>
<rect x="29" width="1" height="199" fill="#D9D9D9"/>
<path d="M190 0H191V199H190V0Z" fill="#D9D9D9"/>
<rect y="28" width="29" height="1" fill="#D9D9D9"/>
<rect x="-0.5" y="28.5" width="30" height="28" fill="#F3F3F3" stroke="#DBDBDB"/>
<path d="M15.5107 48H13.8477V40.4209H13.7969L11.645 41.7983V40.2812L13.9238 38.8086H15.5107V48Z" fill="#3A714A"/>
<rect x="-0.5" y="56.5" width="30" height="28" fill="#F3F3F3" stroke="#DBDBDB"/>
<path d="M10.8452 74.8003L14.0889 71.6772C14.4401 71.3218 14.7131 71.0298 14.9077 70.8013C15.1024 70.5728 15.2505 70.3485 15.3521 70.1284C15.4578 69.9041 15.5107 69.6672 15.5107 69.4175C15.5107 69.1424 15.4409 68.8991 15.3013 68.6875C15.1616 68.4759 14.9712 68.313 14.73 68.1987C14.493 68.0802 14.2243 68.021 13.9238 68.021C13.6149 68.021 13.3441 68.0845 13.1113 68.2114C12.8786 68.3341 12.6966 68.5119 12.5654 68.7446C12.4385 68.9731 12.375 69.2419 12.375 69.5508H10.8071C10.8029 68.9795 10.9341 68.478 11.2007 68.0464C11.4673 67.6105 11.8397 67.2741 12.3179 67.0371C12.7961 66.8001 13.3398 66.6816 13.9492 66.6816C14.5628 66.6816 15.1066 66.7959 15.5806 67.0244C16.0588 67.2529 16.429 67.5682 16.6914 67.9702C16.958 68.3722 17.0913 68.8293 17.0913 69.3413C17.0871 69.6968 17.0173 70.0396 16.8818 70.3696C16.7507 70.6997 16.5179 71.0658 16.1836 71.4678C15.8535 71.8698 15.388 72.3543 14.7871 72.9214L13.1494 74.5464V74.6162H17.231V76H10.8516L10.8452 74.8003Z" fill="#3A714A"/>
<rect x="-0.5" y="84.5" width="30" height="29" fill="#F3F3F3" stroke="#DBDBDB"/>
<path d="M14.4937 104.368C13.8462 104.368 13.2664 104.258 12.7544 104.038C12.2466 103.818 11.8446 103.509 11.5483 103.112C11.2563 102.709 11.104 102.255 11.0913 101.747H12.7607C12.7734 101.992 12.8581 102.208 13.0146 102.394C13.1712 102.576 13.3765 102.718 13.6304 102.82C13.8843 102.921 14.1699 102.972 14.4873 102.972C14.8258 102.972 15.1284 102.915 15.395 102.8C15.6616 102.686 15.869 102.525 16.0171 102.318C16.1652 102.111 16.2371 101.874 16.2329 101.607C16.2329 101.328 16.1589 101.08 16.0107 100.864C15.8626 100.649 15.6426 100.481 15.3506 100.363C15.0628 100.24 14.7222 100.179 14.3286 100.179H13.5098V98.903H14.3286C14.6502 98.903 14.938 98.848 15.1919 98.738C15.4458 98.6237 15.6405 98.465 15.7759 98.2619C15.9155 98.0588 15.9854 97.826 15.9854 97.5637C15.9854 97.3098 15.924 97.0855 15.8013 96.8908C15.6828 96.6919 15.5114 96.5375 15.2871 96.4274C15.0671 96.3174 14.8089 96.2624 14.5127 96.2624C14.2207 96.2666 13.952 96.3195 13.7065 96.4211C13.4611 96.5226 13.2622 96.6686 13.1099 96.8591C12.9575 97.0495 12.8771 97.2717 12.8687 97.5256H11.2754C11.2881 97.0178 11.4383 96.5671 11.7261 96.1735C12.0181 95.7757 12.4074 95.4689 12.894 95.2531C13.3807 95.0331 13.9224 94.923 14.519 94.923C15.1284 94.923 15.6637 95.0373 16.125 95.2658C16.5905 95.4901 16.9502 95.7969 17.2041 96.1862C17.458 96.5713 17.5828 96.9987 17.5786 97.4684C17.5828 97.807 17.5151 98.1138 17.3755 98.3889C17.2401 98.6639 17.0433 98.8924 16.7852 99.0744C16.527 99.2564 16.2308 99.3833 15.8965 99.4553V99.5251C16.3239 99.5843 16.6899 99.7113 16.9946 99.9059C17.3035 100.096 17.5363 100.346 17.6929 100.655C17.8494 100.96 17.9277 101.305 17.9277 101.69C17.9277 102.197 17.7796 102.654 17.4834 103.061C17.1914 103.467 16.783 103.786 16.2583 104.019C15.7378 104.252 15.1496 104.368 14.4937 104.368Z" fill="#3A714A"/>
<rect x="-0.5" y="113.5" width="30" height="28" fill="#F3F3F3" stroke="#DBDBDB"/>
<path d="M10.8882 129.972L14.8618 123.809H15.9536V125.688H15.2744L12.583 129.858V129.934H18.1309V131.286H10.8882V129.972ZM15.3506 130.893L15.3696 130.296V123.809H16.9312V133H15.3506V130.893Z" fill="#3A714A"/>
<rect x="-0.5" y="141.5" width="30" height="29" fill="#F3F3F3" stroke="#DBDBDB"/>
<path d="M14.5127 161.127C13.9076 161.127 13.3617 161.015 12.875 160.791C12.3883 160.562 12.0033 160.251 11.7197 159.857C11.4404 159.46 11.2923 159.009 11.2754 158.505H12.8813C12.8983 158.751 12.9808 158.971 13.1289 159.166C13.2812 159.36 13.478 159.515 13.7192 159.629C13.9604 159.739 14.2249 159.792 14.5127 159.788C14.8512 159.788 15.1538 159.711 15.4204 159.559C15.687 159.407 15.8965 159.197 16.0488 158.931C16.2012 158.664 16.2773 158.361 16.2773 158.023C16.2773 157.68 16.1991 157.373 16.0425 157.103C15.8901 156.827 15.6764 156.614 15.4014 156.461C15.1263 156.305 14.8132 156.227 14.4619 156.227C14.098 156.222 13.7891 156.286 13.5352 156.417C13.2812 156.544 13.0824 156.743 12.9385 157.014H11.4087L11.9609 151.809H17.3882V153.192H13.3257L13.0464 155.636H13.1226C13.3088 155.429 13.5605 155.262 13.8779 155.135C14.1953 155.004 14.5402 154.936 14.9126 154.932C15.4712 154.932 15.9769 155.063 16.4297 155.325C16.8867 155.583 17.2422 155.945 17.4961 156.411C17.7542 156.876 17.8833 157.399 17.8833 157.979C17.8833 158.584 17.7394 159.125 17.4517 159.604C17.1639 160.082 16.764 160.456 16.252 160.727C15.7441 160.994 15.1644 161.127 14.5127 161.127Z" fill="#3A714A"/>
<rect x="-0.5" y="170.5" width="30" height="28" fill="#F3F3F3" stroke="#DBDBDB"/>
<path d="M14.5952 190.127C13.9435 190.123 13.349 189.977 12.8115 189.689C12.2741 189.397 11.8382 188.921 11.5039 188.261C11.1696 187.596 11.0046 186.731 11.0088 185.665C11.0088 184.624 11.159 183.729 11.4595 182.979C11.7642 182.23 12.1916 181.661 12.7417 181.272C13.2918 180.878 13.9414 180.682 14.6904 180.682C15.266 180.682 15.7843 180.794 16.2456 181.018C16.7111 181.238 17.0835 181.547 17.3628 181.945C17.6463 182.343 17.8219 182.789 17.8896 183.284H16.2583C16.1991 183.043 16.0996 182.836 15.96 182.662C15.8203 182.484 15.6426 182.349 15.4268 182.256C15.2109 182.163 14.9655 182.116 14.6904 182.116C14.2461 182.116 13.8695 182.241 13.5605 182.491C13.2516 182.736 13.0168 183.094 12.856 183.563C12.6951 184.029 12.6147 184.585 12.6147 185.233H12.7036C12.856 184.966 13.0527 184.738 13.2939 184.547C13.5352 184.353 13.806 184.207 14.1064 184.109C14.4069 184.012 14.7243 183.963 15.0586 183.963C15.6045 183.963 16.0996 184.092 16.5439 184.351C16.9883 184.609 17.3374 184.966 17.5913 185.423C17.8494 185.876 17.9785 186.388 17.9785 186.959C17.9785 187.565 17.8368 188.108 17.5532 188.591C17.2739 189.069 16.8761 189.446 16.3599 189.721C15.8478 189.996 15.2596 190.131 14.5952 190.127ZM14.5889 188.788C14.9232 188.788 15.2257 188.709 15.4966 188.553C15.7716 188.392 15.9875 188.176 16.144 187.905C16.3006 187.63 16.3789 187.328 16.3789 186.998C16.3789 186.672 16.3027 186.373 16.1504 186.103C15.998 185.832 15.7865 185.618 15.5156 185.461C15.2448 185.305 14.9401 185.227 14.6016 185.227C14.2673 185.227 13.9626 185.307 13.6875 185.468C13.4167 185.624 13.1987 185.84 13.0337 186.115C12.8729 186.39 12.7904 186.687 12.7861 187.004C12.7861 187.326 12.8665 187.622 13.0273 187.893C13.1882 188.163 13.404 188.381 13.6748 188.546C13.9456 188.707 14.2503 188.788 14.5889 188.788Z" fill="#3A714A"/>
<path d="M29.5 198.5H132.5V218C132.5 222.142 129.142 225.5 125 225.5H37C32.8579 225.5 29.5 222.142 29.5 218V198.5Z" fill="white" stroke="#DBDBDB"/>
<path d="M67.2339 210.355C67.2124 210.137 67.139 209.947 67.0137 209.786C66.8919 209.625 66.7236 209.505 66.5088 209.426C66.2939 209.343 66.0469 209.302 65.7676 209.302C65.4775 209.302 65.2269 209.345 65.0156 209.431C64.8044 209.517 64.6396 209.639 64.5215 209.796C64.4069 209.95 64.3496 210.126 64.3496 210.323C64.3496 210.616 64.4714 210.846 64.7148 211.01C64.9619 211.171 65.2842 211.3 65.6816 211.397L66.4067 211.58C67.0942 211.741 67.6457 211.997 68.061 212.348C68.48 212.699 68.6912 213.187 68.6948 213.814C68.6948 214.272 68.5785 214.675 68.3457 215.022C68.113 215.37 67.7746 215.64 67.3306 215.833C66.8866 216.023 66.3566 216.118 65.7407 216.118C65.1392 216.122 64.6164 216.029 64.1724 215.839C63.7284 215.646 63.381 215.37 63.1304 215.012C62.8833 214.65 62.749 214.215 62.7275 213.707H64.1025C64.1204 213.972 64.2028 214.195 64.3496 214.378C64.4964 214.561 64.688 214.697 64.9243 214.786C65.1642 214.876 65.4328 214.92 65.73 214.92C66.0379 214.92 66.3101 214.874 66.5464 214.781C66.7827 214.688 66.9653 214.557 67.0942 214.389C67.2231 214.217 67.2894 214.022 67.293 213.803C67.2894 213.61 67.2321 213.445 67.1211 213.309C67.0137 213.173 66.8579 213.062 66.6538 212.976C66.4533 212.887 66.1991 212.802 65.8911 212.724L65.0049 212.498C64.3389 212.323 63.8268 212.065 63.4688 211.725C63.1107 211.384 62.9334 210.944 62.937 210.403C62.937 209.952 63.0588 209.553 63.3022 209.206C63.5493 208.855 63.8895 208.586 64.3228 208.4C64.756 208.21 65.2448 208.115 65.7891 208.115C66.3298 208.115 66.8114 208.21 67.2339 208.4C67.6564 208.59 67.9858 208.855 68.2222 209.195C68.4585 209.535 68.5802 209.922 68.5874 210.355H67.2339ZM71.1602 216H69.7959V208.223H71.1333V211.155H71.1978C71.3374 210.819 71.5522 210.557 71.8423 210.371C72.1323 210.185 72.4958 210.092 72.9326 210.092C73.3408 210.092 73.6953 210.178 73.9961 210.35C74.2969 210.518 74.5296 210.767 74.6943 211.096C74.859 211.426 74.9414 211.821 74.9414 212.283V216H73.5771V212.493C73.5771 212.231 73.5306 212.007 73.4375 211.821C73.348 211.635 73.2155 211.494 73.04 211.397C72.8682 211.297 72.6623 211.247 72.4224 211.247C72.1753 211.247 71.9569 211.299 71.7671 211.402C71.5809 211.506 71.4323 211.66 71.3213 211.864C71.2139 212.065 71.1602 212.303 71.1602 212.579V216ZM78.8408 216.113C78.2607 216.113 77.7576 215.991 77.3315 215.748C76.9054 215.504 76.5778 215.157 76.3486 214.706C76.1195 214.254 76.0049 213.726 76.0049 213.121C76.0049 212.523 76.1195 211.995 76.3486 211.537C76.5814 211.075 76.9054 210.718 77.3208 210.468C77.7362 210.217 78.2196 210.092 78.771 210.092C79.2651 210.092 79.7127 210.197 80.1138 210.409C80.5148 210.62 80.8335 210.946 81.0698 211.386C81.3097 211.827 81.4297 212.375 81.4297 213.03V213.459H76.6548V212.53H80.1191C80.1156 212.269 80.0583 212.034 79.9473 211.827C79.8398 211.615 79.6841 211.451 79.48 211.333C79.2795 211.214 79.0485 211.155 78.7871 211.155C78.5078 211.155 78.2607 211.222 78.0459 211.354C77.8311 211.486 77.6628 211.666 77.541 211.891C77.4229 212.113 77.362 212.357 77.3584 212.622V213.417C77.3584 213.757 77.4211 214.049 77.5464 214.292C77.6717 214.535 77.8454 214.723 78.0674 214.856C78.293 214.985 78.5562 215.049 78.8569 215.049C79.0503 215.049 79.224 215.022 79.3779 214.969C79.5355 214.915 79.668 214.843 79.7754 214.754C79.8864 214.664 79.9723 214.561 80.0332 214.442H81.376C81.2936 214.779 81.1379 215.074 80.9087 215.329C80.6831 215.579 80.3931 215.773 80.0386 215.909C79.6877 216.045 79.2884 216.113 78.8408 216.113ZM85.082 216.113C84.502 216.113 83.9989 215.991 83.5728 215.748C83.1466 215.504 82.819 215.157 82.5898 214.706C82.3607 214.254 82.2461 213.726 82.2461 213.121C82.2461 212.523 82.3607 211.995 82.5898 211.537C82.8226 211.075 83.1466 210.718 83.562 210.468C83.9774 210.217 84.4608 210.092 85.0122 210.092C85.5063 210.092 85.9539 210.197 86.355 210.409C86.756 210.62 87.0747 210.946 87.311 211.386C87.5509 211.827 87.6709 212.375 87.6709 213.03V213.459H82.896V212.53H86.3604C86.3568 212.269 86.2995 212.034 86.1885 211.827C86.0811 211.615 85.9253 211.451 85.7212 211.333C85.5207 211.214 85.2897 211.155 85.0283 211.155C84.749 211.155 84.502 211.222 84.2871 211.354C84.0723 211.486 83.904 211.666 83.7822 211.891C83.6641 212.113 83.6032 212.357 83.5996 212.622V213.417C83.5996 213.757 83.6623 214.049 83.7876 214.292C83.9129 214.535 84.0866 214.723 84.3086 214.856C84.5342 214.985 84.7974 215.049 85.0981 215.049C85.2915 215.049 85.4652 215.022 85.6191 214.969C85.7767 214.915 85.9092 214.843 86.0166 214.754C86.1276 214.664 86.2135 214.561 86.2744 214.442H87.6172C87.5348 214.779 87.3791 215.074 87.1499 215.329C86.9243 215.579 86.6343 215.773 86.2798 215.909C85.9289 216.045 85.5296 216.113 85.082 216.113ZM91.6401 211.22H88.2993V210.167H91.6401V211.22ZM90.4961 208.771V214.249C90.4961 214.424 90.5229 214.562 90.5767 214.663C90.6304 214.759 90.702 214.827 90.7915 214.867C90.8846 214.906 90.9956 214.926 91.1245 214.926C91.1782 214.929 91.2427 214.929 91.3179 214.926C91.3966 214.922 91.4736 214.919 91.5488 214.915L91.7207 214.899V216.021C91.4915 216.061 91.2337 216.081 90.9473 216.081C90.5964 216.081 90.283 216.021 90.0073 215.903C89.7316 215.782 89.515 215.603 89.3574 215.366C89.2035 215.126 89.1265 214.827 89.1265 214.469V208.771H90.4961ZM98.4668 216H97.0596V209.587H97.0166L95.1958 210.752V209.469L97.124 208.223H98.4668V216Z" fill="#3A714A"/>
<rect y="198" width="293" height="1" fill="#B6B6B6"/>
</g>
<rect x="1" y="1" width="291" height="233" rx="19" stroke="#C8C9CA" stroke-width="2"/>
<defs>
<clipPath id="clip0_20_70">
<rect width="293" height="235" rx="20" fill="white"/>
</clipPath>
</defs>
</svg>
